<svg width="758" height="897" viewBox="0 0 758 897" fill="none" xmlns="http://www.w3.org/2000/svg">
<g clip-path="url(#clip0)">
<path d="M636.5 232.73C704.56 294.06 729.67 413.61 703.83 519.34C677.81 625.07 601 717 496 778.29C391 839.43 258 870.19 169.18 822.15C80.36 774.11 36.17 647.63 13.78 523.53C-8.41999 399.42 -8.77999 277.86 50.36 218.53C109.5 159.4 228 162.31 342.79 165.22C457.62 168.31 568.62 171.41 636.5 232.73Z" fill="#F2F2F2"/>
<path d="M580.88 858.32H558.8V873.06H580.88V858.32Z" fill="#72EFDD"/>
<path d="M689.793 831.077L673.674 844.097L685.211 858.38L701.33 845.36L689.793 831.077Z" fill="#72EFDD"/>
<path d="M595.57 256.37H594.56C590.015 256.37 586.33 260.055 586.33 264.6V268.83C586.33 273.375 590.015 277.06 594.56 277.06H595.57C600.115 277.06 603.8 273.375 603.8 268.83V264.6C603.8 260.055 600.115 256.37 595.57 256.37Z" fill="#72EFDD"/>
<path d="M602.4 567.42C605.4 574.3 628.4 712.36 631.78 725.42C635.16 738.48 689.23 823.62 692.91 828.71C694.04 836.07 677.34 848.52 669.42 848.52C661.5 842.26 569 708.23 566.78 702.28C564.56 696.33 557.11 553.94 602.4 567.42Z" fill="#5E60CE"/>
<path d="M505.83 544.55C504.78 550.25 520.41 680.55 522.35 698.05C524.29 715.55 554.24 856.53 556.89 860.05C559.54 863.57 579.7 862.81 583.18 861.05C586.66 859.29 576.38 714.05 576.38 703.52C576.38 692.99 603.38 595.87 599.91 567.74C596.44 539.61 505.83 544.55 505.83 544.55Z" fill="#5E60CE"/>
<path d="M582.47 386.6H561.36V423.34H582.47V386.6Z" fill="#72EFDD"/>
<path d="M452.12 137.85H117.39C105.008 137.85 94.97 147.888 94.97 160.27V495C94.97 507.382 105.008 517.42 117.39 517.42H452.12C464.502 517.42 474.54 507.382 474.54 495V160.27C474.54 147.888 464.502 137.85 452.12 137.85Z" fill="#D9D9FF"/>
<path d="M308.48 310.8C313.688 306.021 317.331 299.78 318.933 292.896C320.534 286.011 320.019 278.803 317.455 272.216C314.89 265.629 310.397 259.97 304.562 255.981C298.727 251.991 291.823 249.856 284.755 249.856C277.687 249.856 270.783 251.991 264.948 255.981C259.113 259.97 254.62 265.629 252.055 272.216C249.491 278.803 248.976 286.011 250.577 292.896C252.179 299.78 255.822 306.021 261.03 310.8L234 420.41H335.48L308.48 310.8Z" fill="#6930C3"/>
<path d="M162.9 137.85C163.191 105.723 176.157 75.0113 198.978 52.3964C221.799 29.7816 252.627 17.0939 284.755 17.0939C316.883 17.0939 347.711 29.7816 370.532 52.3964C393.352 75.0113 406.319 105.723 406.61 137.85" stroke="#D3D3D3" stroke-width="32" stroke-linecap="round" stroke-linejoin="round"/>
<path d="M569.19 392.64C585.206 392.64 598.19 375.179 598.19 353.64C598.19 332.101 585.206 314.64 569.19 314.64C553.174 314.64 540.19 332.101 540.19 353.64C540.19 375.179 553.174 392.64 569.19 392.64Z" fill="#72EFDD"/>
<path d="M565.24 415.77C530.08 415.77 498.74 513.31 504.76 545.68C506.54 555.24 590.68 574.53 603.54 571.83C608.11 565.61 626.76 415.77 565.24 415.77Z" fill="#6930C3"/>
<path d="M556.22 470.1C571.96 458.68 546.8 403.34 540.92 402.39C530.09 400.64 503.16 421.39 504.01 430.11C504.46 434.71 540.19 481.73 556.22 470.1Z" fill="#6930C3"/>
<path d="M509 426C504.76 420.91 494.16 396 493 390.09C491.84 384.18 489 295.35 489 290.09C489 284.83 482 271.56 482 263.64C482 255.72 490.06 244.98 494.16 244.84C498.54 247.95 504.62 266.19 504.9 270.84C506.43 260.84 513.67 258.54 515.65 258.54C517.63 258.54 517.37 273.99 509.17 284.39C509.46 292.03 519.17 367.7 520.74 372.08C522.31 376.46 540.19 405.17 540.15 407.71C540.11 410.25 509 426 509 426Z" fill="#72EFDD"/>
<path d="M725.222 284.614L370.409 236.136L369.024 246.272L723.837 294.749L725.222 284.614Z" fill="#5E60CE"/>
<path d="M390.719 249.232L369.021 246.268L365.01 275.625L386.708 278.59L390.719 249.232Z" fill="#5E60CE"/>
<path d="M411.618 252.092L399.947 250.498L395.936 279.855L407.607 281.449L411.618 252.092Z" fill="#5E60CE"/>
<path d="M604.74 334C603.91 329.26 603.16 294.91 604.44 290.06C605.72 285.21 609.18 281.67 610.73 274.43C611.26 271.94 610.42 263.32 608.73 262.96C605.09 262.18 604.88 266.26 604.4 269.26C602.54 279.49 598.75 277.62 597 277.38C595.25 277.14 589.24 276.1 587.27 276.05C585.3 276 590.32 280.05 588.79 286.52C587.59 291.61 581.95 325.52 580.79 331.07C585 331.24 604.74 334 604.74 334Z" fill="#72EFDD"/>
<path d="M431.537 254.804L419.865 253.209L415.854 282.566L427.526 284.161L431.537 254.804Z" fill="#5E60CE"/>
<path d="M431.53 254.812L369.021 246.271L367.6 256.675L430.109 265.215L431.53 254.812Z" fill="#5E60CE"/>
<path d="M734.69 264.08C729.491 263.372 724.198 264.221 719.481 266.52C714.764 268.819 710.834 272.464 708.189 276.996C705.543 281.527 704.3 286.741 704.617 291.979C704.934 297.217 706.796 302.243 709.968 306.423C713.141 310.603 717.481 313.748 722.441 315.462C727.4 317.176 732.757 317.381 737.833 316.051C742.909 314.722 747.477 311.917 750.96 307.992C754.443 304.067 756.684 299.198 757.4 294C757.876 290.544 757.666 287.028 756.782 283.653C755.898 280.278 754.358 277.11 752.248 274.331C750.139 271.552 747.503 269.217 744.49 267.458C741.477 265.699 738.147 264.551 734.69 264.08V264.08ZM749 292.82C748.516 296.361 746.993 299.679 744.623 302.355C742.252 305.03 739.142 306.943 735.685 307.85C732.228 308.758 728.58 308.62 725.201 307.454C721.823 306.288 718.866 304.146 716.704 301.299C714.543 298.453 713.275 295.029 713.059 291.461C712.844 287.894 713.691 284.342 715.495 281.256C717.298 278.17 719.976 275.688 723.19 274.124C726.403 272.56 730.009 271.985 733.55 272.47C738.297 273.121 742.591 275.63 745.489 279.446C748.386 283.262 749.649 288.073 749 292.82V292.82Z" fill="#5E60CE"/>
<path d="M509.28 284.31C507.96 279.14 505.39 274.62 504.97 270.73V270.85C504.69 266.19 498.61 247.95 494.23 244.85C490.13 244.99 482.07 255.73 482.07 263.65C482.07 269.46 485.87 278.15 487.89 284.44H509.24L509.28 284.31Z" fill="#72EFDD"/>
<path d="M543.06 329.21C543.06 342.7 552.58 351.02 567.67 355.66C567.67 374.12 570.52 374.93 570.52 386.17C570.52 410.39 566.39 398.28 566.39 440.1C566.39 465.32 576.95 479.04 596.39 479.04C619.9 479.04 633.39 454.17 633.39 440.77C633.39 423.77 616.57 394.23 615.39 369.7C613.76 336.7 603.5 309.09 577.77 309.09C555.79 309.09 543.06 317.27 543.06 329.21Z" fill="black"/>
<path d="M569.16 366.62C573.468 366.62 576.96 363.128 576.96 358.82C576.96 354.512 573.468 351.02 569.16 351.02C564.852 351.02 561.36 354.512 561.36 358.82C561.36 363.128 564.852 366.62 569.16 366.62Z" fill="#72EFDD"/>
<path fill-rule="evenodd" clip-rule="evenodd" d="M701.29 842.49L713.79 859.55L687.64 896.55L662.96 896.71L663.28 884.2L673.19 879.82L682 858.08L701.29 842.49Z" fill="black"/>
<path d="M582.36 871.83V896.74H509.14V885.71L557.45 871.83H582.36Z" fill="black"/>
</g>
<defs>
<clipPath id="clip0">
<rect width="757.64" height="896.74" fill="white"/>
</clipPath>
</defs>
</svg>
