<svg width="165" height="114" viewBox="0 0 165 114" fill="none" xmlns="http://www.w3.org/2000/svg">
<path d="M4.50781 18.3301L4.73633 18.1543L4.75391 17.7852C5.04688 17.0703 5.3457 16.3848 5.65039 15.7285C5.9668 15.0723 6.29492 14.3984 6.63477 13.707C6.74023 13.4844 6.8457 13.2617 6.95117 13.0391C7.06836 12.8164 7.17969 12.5879 7.28516 12.3535C7.27344 12.3066 7.26758 12.2598 7.26758 12.2129C7.26758 12.1543 7.2793 12.0898 7.30273 12.0195C7.4668 11.7852 7.5957 11.5742 7.68945 11.3867C7.79492 11.1992 7.89453 11.0059 7.98828 10.8066C8.09375 10.5723 8.20508 10.3379 8.32227 10.1035C8.45117 9.86914 8.60938 9.64062 8.79688 9.41797L8.91992 9.24219L9.11328 9.25977C9.16016 9.23633 9.20703 9.21875 9.25391 9.20703C9.3125 9.18359 9.38281 9.17188 9.46484 9.17188L9.78125 9.22461C10.168 9.04883 10.5078 8.79688 10.8008 8.46875C11.1055 8.12891 11.4102 7.72461 11.7148 7.25586L11.9258 6.95703L12.207 7.13281C12.2656 7.16797 12.3594 7.20312 12.4883 7.23828C12.6172 7.27344 12.752 7.31445 12.8926 7.36133C13.1387 7.41992 13.3789 7.49023 13.6133 7.57227C13.8477 7.64258 14.0293 7.74219 14.1582 7.87109L14.2461 8.0293C14.2695 8.1582 14.2871 8.27539 14.2988 8.38086C14.3223 8.48633 14.3457 8.5918 14.3691 8.69727C14.416 8.94336 14.457 9.18945 14.4922 9.43555C14.5273 9.66992 14.5508 9.93359 14.5625 10.2266C14.6211 10.4609 14.6738 10.7012 14.7207 10.9473C14.7793 11.1816 14.832 11.416 14.8789 11.6504C14.9375 11.9902 15.002 12.3184 15.0723 12.6348C15.1426 12.9395 15.2363 13.2324 15.3535 13.5137C15.4707 13.5137 15.541 13.5195 15.5645 13.5312C15.7051 13.4727 15.8691 13.4375 16.0566 13.4258L16.2852 13.4082L16.3555 13.6191C16.3789 13.6543 16.4082 13.6895 16.4434 13.7246C16.4785 13.7598 16.5195 13.7949 16.5664 13.8301C16.7539 13.8418 16.8887 13.8828 16.9707 13.9531C17.0645 14.0117 17.1406 14.0703 17.1992 14.1289C17.2227 14.1523 17.252 14.1816 17.2871 14.2168C17.3223 14.2402 17.3516 14.2578 17.375 14.2695L17.6914 14.3926L17.5156 14.7266C17.3867 14.9727 17.1875 15.2129 16.918 15.4473C16.6602 15.6816 16.3672 15.875 16.0391 16.0273C16.0625 16.1094 16.0742 16.1855 16.0742 16.2559C16.0859 16.3262 16.1035 16.4082 16.127 16.502C16.1738 16.7363 16.209 16.9824 16.2324 17.2402C16.2676 17.4863 16.2676 17.7441 16.2324 18.0137C16.1152 18.3184 15.9746 18.5938 15.8105 18.8398C15.6582 19.0742 15.4707 19.291 15.248 19.4902C15.0371 19.6777 14.7969 19.8359 14.5273 19.9648C14.2578 20.082 13.9766 20.1465 13.6836 20.1582C13.5195 20.123 13.3965 20.082 13.3145 20.0352C13.2441 19.9883 13.1797 19.9414 13.1211 19.8945C13.0273 19.8242 12.9512 19.7773 12.8926 19.7539L12.6641 19.6484L12.7344 19.3848C12.7695 19.291 12.7637 19.209 12.7168 19.1387C12.6816 19.0684 12.5996 18.9746 12.4707 18.8574C12.4238 18.8223 12.3828 18.7871 12.3477 18.752C12.3125 18.7051 12.2715 18.6582 12.2246 18.6113L11.873 18.207L12.4531 18.0488C12.8047 17.9551 13.0391 17.8379 13.1562 17.6973C13.2734 17.5449 13.3203 17.2812 13.2969 16.9062C13.0039 16.8477 12.7637 16.8418 12.5762 16.8887C12.3887 16.9238 12.2012 16.9648 12.0137 17.0117C11.7441 17.082 11.4805 17.1465 11.2227 17.2051C10.9648 17.252 10.6836 17.2754 10.3789 17.2754C10.1797 17.2754 9.96875 17.2578 9.74609 17.2227L9.55273 17.2051L9.5 17.0117C9.5 16.9883 9.48242 16.9648 9.44727 16.9414C9.42383 16.9062 9.40039 16.877 9.37695 16.8535C9.31836 16.7832 9.24805 16.6895 9.16602 16.5723C9.08398 16.4551 9.06641 16.3086 9.11328 16.1328C9.03125 16.0039 8.98438 15.8691 8.97266 15.7285C8.92578 15.8223 8.88477 15.916 8.84961 16.0098C8.82617 16.0918 8.80273 16.1738 8.7793 16.2559L8.70898 16.4844L8.48047 16.5195C8.45703 16.543 8.43359 16.5781 8.41016 16.625C8.39844 16.6719 8.39844 16.707 8.41016 16.7305L8.48047 16.9238L8.30469 17.082C8.28125 17.1172 8.25195 17.1465 8.2168 17.1699C8.18164 17.1934 8.15234 17.2168 8.12891 17.2402C8.10547 17.3691 8.07031 17.4922 8.02344 17.6094C7.98828 17.7266 7.94727 17.8438 7.90039 17.9609C7.8418 18.1484 7.7832 18.3301 7.72461 18.5059C7.67773 18.6816 7.6543 18.8574 7.6543 19.0332L7.58398 19.2617C7.52539 19.3555 7.44922 19.4258 7.35547 19.4727C7.27344 19.5195 7.19141 19.5605 7.10938 19.5957C6.99219 19.6426 6.91016 19.6895 6.86328 19.7363L6.81055 19.9648L6.54688 20C6.39453 20.0352 6.2832 20.0586 6.21289 20.0703C6.1543 20.082 6.08398 20.0879 6.00195 20.0879L5.77344 20.0703C5.63281 19.9297 5.51562 19.8242 5.42188 19.7539C5.33984 19.6719 5.24023 19.6016 5.12305 19.543L5.01758 19.4023C4.9707 19.3086 4.94141 19.2266 4.92969 19.1562C4.91797 19.0742 4.90039 18.9922 4.87695 18.9102C4.85352 18.7578 4.81836 18.6523 4.77148 18.5938L4.50781 18.3301ZM10.1152 13.7598C9.95117 13.9941 9.79297 14.2402 9.64062 14.498C9.72266 14.4863 9.79883 14.4805 9.86914 14.4805C9.95117 14.4805 10.0332 14.4746 10.1152 14.4629C10.5254 14.4395 10.9062 14.4102 11.2578 14.375C11.6094 14.3398 11.9902 14.2812 12.4004 14.1992C12.3066 13.7656 12.2012 13.3262 12.084 12.8809C11.9785 12.4238 11.8613 11.9668 11.7324 11.5098L11.6445 11.6855C11.3516 12.002 11.0703 12.3418 10.8008 12.7051C10.5312 13.0684 10.3086 13.4141 10.1328 13.7422L10.1152 13.7598ZM26.2695 15.2539C26.2578 15.3125 26.2461 15.3652 26.2344 15.4121C26.2227 15.4473 26.2109 15.4824 26.1992 15.5176C26.1875 15.5527 26.1816 15.5996 26.1816 15.6582C26.1816 15.7051 26.1816 15.7695 26.1816 15.8516C25.8301 16.4727 25.3848 16.9941 24.8457 17.416C24.3184 17.8379 23.7324 18.2129 23.0879 18.541C22.4551 18.8574 21.793 19.1504 21.1016 19.4199C20.4102 19.6777 19.7363 19.959 19.0801 20.2637C18.7988 20.1934 18.582 20.0762 18.4297 19.9121C18.2891 19.748 18.1777 19.5605 18.0957 19.3496C18.0254 19.127 17.9727 18.8867 17.9375 18.6289C17.9141 18.3594 17.8906 18.084 17.8672 17.8027C17.9023 17.6738 17.9492 17.5684 18.0078 17.4863C18.0781 17.3926 18.1133 17.2637 18.1133 17.0996C18.207 16.7949 18.3008 16.4961 18.3945 16.2031C18.4883 15.9102 18.5469 15.6113 18.5703 15.3066C18.6055 15.2129 18.6699 15.1484 18.7637 15.1133C18.8223 14.5508 18.8223 13.9824 18.7637 13.4082C18.7168 12.8223 18.623 12.2773 18.4824 11.7734C18.4941 11.6562 18.5059 11.5742 18.5176 11.5273C18.541 11.4688 18.541 11.4277 18.5176 11.4043C18.5059 11.3105 18.5352 11.2637 18.6055 11.2637C18.6875 11.2637 18.7695 11.2637 18.8516 11.2637C18.8516 11.0879 18.8164 10.9121 18.7461 10.7363C18.6875 10.5605 18.6289 10.3613 18.5703 10.1387C18.6523 9.96289 18.7051 9.79297 18.7285 9.62891C18.752 9.45312 18.8047 9.30078 18.8867 9.17188C19.5195 9.37109 20.123 9.61133 20.6973 9.89258C21.2832 10.1738 21.8574 10.3789 22.4199 10.5078C22.8418 10.8125 23.2754 11.1172 23.7207 11.4219C24.166 11.7148 24.5703 12.043 24.9336 12.4062C25.2969 12.7578 25.6016 13.1621 25.8477 13.6191C26.0938 14.0762 26.2344 14.6211 26.2695 15.2539ZM22.1035 16.2207C22.3496 16.127 22.5898 16.0273 22.8242 15.9219C23.0703 15.8164 23.293 15.6992 23.4922 15.5703C23.7031 15.4297 23.8906 15.2715 24.0547 15.0957C24.2188 14.9199 24.3535 14.709 24.459 14.4629C24.3887 14.3223 24.2949 14.1992 24.1777 14.0938C24.0605 13.9766 23.9434 13.8711 23.8262 13.7773C23.709 13.6719 23.5918 13.5664 23.4746 13.4609C23.3691 13.3555 23.2812 13.2266 23.2109 13.0742C23.0586 13.0508 22.9238 13.0098 22.8066 12.9512C22.6895 12.8809 22.5723 12.8164 22.4551 12.7578C22.3496 12.6875 22.2324 12.623 22.1035 12.5645C21.9863 12.5059 21.8457 12.4707 21.6816 12.459C21.4238 12.3301 21.1895 12.2363 20.9785 12.1777C20.7793 12.1191 20.627 12.043 20.5215 11.9492C20.4395 11.9492 20.375 11.9668 20.3281 12.002C20.4453 12.4473 20.5332 12.8691 20.5918 13.2676C20.6504 13.6543 20.6797 14.0469 20.6797 14.4453C20.6914 14.832 20.6738 15.2305 20.627 15.6406C20.5801 16.0508 20.5156 16.4961 20.4336 16.9766C20.5508 16.9648 20.6562 16.9414 20.75 16.9062C20.8555 16.8594 20.9551 16.8125 21.0488 16.7656C21.1543 16.7188 21.2598 16.6777 21.3652 16.6426C21.4824 16.5957 21.6172 16.5664 21.7695 16.5547C21.8047 16.4844 21.8516 16.4258 21.9102 16.3789C21.9805 16.332 22.0449 16.2793 22.1035 16.2207ZM35.041 15.2539C35.0293 15.3125 35.0176 15.3652 35.0059 15.4121C34.9941 15.4473 34.9824 15.4824 34.9707 15.5176C34.959 15.5527 34.9531 15.5996 34.9531 15.6582C34.9531 15.7051 34.9531 15.7695 34.9531 15.8516C34.6016 16.4727 34.1562 16.9941 33.6172 17.416C33.0898 17.8379 32.5039 18.2129 31.8594 18.541C31.2266 18.8574 30.5645 19.1504 29.873 19.4199C29.1816 19.6777 28.5078 19.959 27.8516 20.2637C27.5703 20.1934 27.3535 20.0762 27.2012 19.9121C27.0605 19.748 26.9492 19.5605 26.8672 19.3496C26.7969 19.127 26.7441 18.8867 26.709 18.6289C26.6855 18.3594 26.6621 18.084 26.6387 17.8027C26.6738 17.6738 26.7207 17.5684 26.7793 17.4863C26.8496 17.3926 26.8848 17.2637 26.8848 17.0996C26.9785 16.7949 27.0723 16.4961 27.166 16.2031C27.2598 15.9102 27.3184 15.6113 27.3418 15.3066C27.377 15.2129 27.4414 15.1484 27.5352 15.1133C27.5938 14.5508 27.5938 13.9824 27.5352 13.4082C27.4883 12.8223 27.3945 12.2773 27.2539 11.7734C27.2656 11.6562 27.2773 11.5742 27.2891 11.5273C27.3125 11.4688 27.3125 11.4277 27.2891 11.4043C27.2773 11.3105 27.3066 11.2637 27.377 11.2637C27.459 11.2637 27.541 11.2637 27.623 11.2637C27.623 11.0879 27.5879 10.9121 27.5176 10.7363C27.459 10.5605 27.4004 10.3613 27.3418 10.1387C27.4238 9.96289 27.4766 9.79297 27.5 9.62891C27.5234 9.45312 27.5762 9.30078 27.6582 9.17188C28.291 9.37109 28.8945 9.61133 29.4688 9.89258C30.0547 10.1738 30.6289 10.3789 31.1914 10.5078C31.6133 10.8125 32.0469 11.1172 32.4922 11.4219C32.9375 11.7148 33.3418 12.043 33.7051 12.4062C34.0684 12.7578 34.373 13.1621 34.6191 13.6191C34.8652 14.0762 35.0059 14.6211 35.041 15.2539ZM30.875 16.2207C31.1211 16.127 31.3613 16.0273 31.5957 15.9219C31.8418 15.8164 32.0645 15.6992 32.2637 15.5703C32.4746 15.4297 32.6621 15.2715 32.8262 15.0957C32.9902 14.9199 33.125 14.709 33.2305 14.4629C33.1602 14.3223 33.0664 14.1992 32.9492 14.0938C32.832 13.9766 32.7148 13.8711 32.5977 13.7773C32.4805 13.6719 32.3633 13.5664 32.2461 13.4609C32.1406 13.3555 32.0527 13.2266 31.9824 13.0742C31.8301 13.0508 31.6953 13.0098 31.5781 12.9512C31.4609 12.8809 31.3438 12.8164 31.2266 12.7578C31.1211 12.6875 31.0039 12.623 30.875 12.5645C30.7578 12.5059 30.6172 12.4707 30.4531 12.459C30.1953 12.3301 29.9609 12.2363 29.75 12.1777C29.5508 12.1191 29.3984 12.043 29.293 11.9492C29.2109 11.9492 29.1465 11.9668 29.0996 12.002C29.2168 12.4473 29.3047 12.8691 29.3633 13.2676C29.4219 13.6543 29.4512 14.0469 29.4512 14.4453C29.4629 14.832 29.4453 15.2305 29.3984 15.6406C29.3516 16.0508 29.2871 16.4961 29.2051 16.9766C29.3223 16.9648 29.4277 16.9414 29.5215 16.9062C29.627 16.8594 29.7266 16.8125 29.8203 16.7656C29.9258 16.7188 30.0312 16.6777 30.1367 16.6426C30.2539 16.5957 30.3887 16.5664 30.541 16.5547C30.5762 16.4844 30.623 16.4258 30.6816 16.3789C30.752 16.332 30.8164 16.2793 30.875 16.2207ZM51.9863 11.5449C51.6934 11.5449 51.377 11.5684 51.0371 11.6152C50.6973 11.6504 50.3633 11.6914 50.0352 11.7383C49.8008 11.7734 49.5723 11.8027 49.3496 11.8262C49.1387 11.8496 48.9453 11.8672 48.7695 11.8789C48.6875 12.1367 48.6055 12.3652 48.5234 12.5645C48.4414 12.7637 48.3535 12.957 48.2598 13.1445C48.166 13.3438 48.0781 13.5488 47.9961 13.7598C47.9258 13.959 47.8555 14.1758 47.7852 14.4102C47.668 14.5977 47.5684 14.7734 47.4863 14.9375C47.416 15.0898 47.3574 15.2656 47.3105 15.4648C47.1699 15.6406 47.0645 15.8281 46.9941 16.0273C46.9238 16.2148 46.8711 16.3789 46.8359 16.5195L46.7656 16.7305C46.6953 16.8008 46.6543 16.8594 46.6426 16.9062C46.6309 16.9414 46.6016 16.9766 46.5547 17.0117C46.543 17.1406 46.502 17.2695 46.4316 17.3984C46.4082 17.457 46.3906 17.5156 46.3789 17.5742C46.3672 17.6211 46.3613 17.6562 46.3613 17.6797C46.3613 17.7969 46.332 17.873 46.2734 17.9082C46.2852 17.9668 46.2852 18.0312 46.2734 18.1016C46.2617 18.1602 46.25 18.2188 46.2383 18.2773C46.2031 18.418 46.1914 18.5293 46.2031 18.6113C46.2383 18.6582 46.2676 18.6992 46.291 18.7344C46.3262 18.7695 46.3496 18.8164 46.3613 18.875C46.4316 18.9219 46.4844 18.9512 46.5195 18.9629C46.5664 18.998 46.6367 19.0391 46.7305 19.0859L46.8887 19.2617C46.9473 19.6016 46.8945 19.8711 46.7305 20.0703C46.5547 20.293 46.2559 20.4043 45.834 20.4043H45.623C45.5645 20.3457 45.5293 20.2988 45.5176 20.2637C45.4238 20.2285 45.3477 20.1992 45.2891 20.1758C45.2305 20.1523 45.1777 20.1055 45.1309 20.0352C44.9785 19.9648 44.8555 19.9062 44.7617 19.8594L44.6035 19.7715C44.6035 19.6426 44.6035 19.5723 44.6035 19.5605C44.5215 19.4551 44.457 19.3379 44.4102 19.209C44.375 19.0801 44.3457 18.9512 44.3223 18.8223C44.2988 18.7168 44.2695 18.6172 44.2344 18.5234C44.2109 18.4297 44.1758 18.3477 44.1289 18.2773C44.1055 17.5977 44.1699 17.0234 44.3223 16.5547C44.4746 16.0859 44.6328 15.6348 44.7969 15.2012C44.8906 14.9668 44.9844 14.7324 45.0781 14.498C45.1719 14.252 45.2539 14 45.3242 13.7422L45.4824 13.5664C45.5645 13.3789 45.6289 13.2266 45.6758 13.1094C45.7344 12.9805 45.793 12.8516 45.8516 12.7227C45.8867 12.6406 45.916 12.5645 45.9395 12.4941C45.9746 12.4121 46.0039 12.3418 46.0273 12.2832C45.957 12.2832 45.8926 12.2891 45.834 12.3008C45.7754 12.3008 45.7168 12.3066 45.6582 12.3184C45.5879 12.3301 45.5234 12.3418 45.4648 12.3535C45.4062 12.3535 45.3477 12.3535 45.2891 12.3535C45.207 12.3535 45.1484 12.3477 45.1133 12.3359C44.9844 12.3945 44.8438 12.4238 44.6914 12.4238H44.5156C44.4805 12.4238 44.4453 12.4238 44.4102 12.4238C44.3867 12.4121 44.3633 12.4062 44.3398 12.4062C44.2227 12.4062 44.1289 12.4238 44.0586 12.459C43.918 12.459 43.7832 12.459 43.6543 12.459H43.4785C43.4551 12.459 43.4258 12.4648 43.3906 12.4766C43.3555 12.4766 43.3262 12.4766 43.3027 12.4766C43.2207 12.4766 43.1328 12.4707 43.0391 12.459C42.9453 12.4355 42.8457 12.3945 42.7402 12.3359C42.5996 12.1484 42.5059 12.0488 42.459 12.0371L42.3008 11.8262C42.2891 11.7559 42.2715 11.6914 42.248 11.6328C42.2246 11.5625 42.2012 11.4863 42.1777 11.4043C42.1309 11.2871 42.084 11.1641 42.0371 11.0352C42.002 10.8945 41.9844 10.7305 41.9844 10.543C41.9961 10.4492 42.0195 10.3789 42.0547 10.332C42.0898 10.2852 42.1191 10.2441 42.1426 10.209L42.1953 9.94531L42.4238 9.96289H42.916C43.291 9.96289 43.6719 9.95117 44.0586 9.92773C44.4453 9.89258 44.8438 9.85742 45.2539 9.82227C45.4883 9.79883 45.7227 9.77539 45.957 9.75195C46.2031 9.72852 46.4551 9.70508 46.7129 9.68164C46.7598 9.57617 46.8066 9.47656 46.8535 9.38281L47.0293 9.29492C47.2402 9.2832 47.3867 9.3125 47.4688 9.38281C47.5625 9.44141 47.6387 9.5 47.6973 9.55859C47.9551 9.53516 48.2129 9.51172 48.4707 9.48828C48.7402 9.45312 49.0098 9.41211 49.2793 9.36523C49.6777 9.30664 50.0762 9.25391 50.4746 9.20703C50.8848 9.16016 51.2773 9.13672 51.6523 9.13672C51.8164 9.13672 51.9746 9.14258 52.127 9.1543C52.2793 9.16602 52.4199 9.18359 52.5488 9.20703L52.7246 9.33008C52.7598 9.40039 52.8066 9.46484 52.8652 9.52344C52.9355 9.58203 53.0059 9.64062 53.0762 9.69922C53.2168 9.82812 53.3574 9.98047 53.498 10.1562C53.6387 10.332 53.6914 10.5898 53.6562 10.9297C53.5625 11.0703 53.4922 11.1523 53.4453 11.1758L53.2871 11.3867L53.1113 11.3691C53.041 11.3691 52.9766 11.3809 52.918 11.4043C52.8594 11.416 52.8008 11.4336 52.7422 11.457C52.6953 11.4805 52.6484 11.5039 52.6016 11.5273C52.5547 11.5391 52.502 11.5508 52.4434 11.5625C52.3379 11.5625 52.25 11.5625 52.1797 11.5625C52.1211 11.5508 52.0566 11.5449 51.9863 11.5449ZM59.0176 18.5234C58.9473 18.7227 58.8418 18.9277 58.7012 19.1387C58.5723 19.3379 58.4141 19.5195 58.2266 19.6836C58.0508 19.8359 57.8516 19.9648 57.6289 20.0703C57.4062 20.1758 57.1719 20.2344 56.9258 20.2461C56.7734 20.2109 56.668 20.1699 56.6094 20.123C56.5625 20.0879 56.5098 20.0527 56.4512 20.0176C56.416 19.9941 56.3809 19.9766 56.3457 19.9648C56.3223 19.9414 56.2988 19.9238 56.2754 19.9121L56.0645 19.8242L56.1348 19.5957C56.1582 19.502 56.1523 19.4316 56.1172 19.3848C56.082 19.3262 56.0117 19.25 55.9062 19.1562C55.8711 19.1211 55.8359 19.0859 55.8008 19.0508C55.7656 19.0156 55.7363 18.9805 55.7129 18.9453L55.4141 18.6113L55.8887 18.4883C56.1816 18.4062 56.375 18.3008 56.4688 18.1719C56.5742 18.043 56.6152 17.8262 56.5918 17.5215C56.3574 17.4746 56.1582 17.4688 55.9941 17.5039C55.8418 17.5391 55.6836 17.5801 55.5195 17.627C55.3086 17.6855 55.0918 17.7383 54.8691 17.7852C54.6582 17.8203 54.4238 17.8379 54.166 17.8379C54.0723 17.8379 53.9844 17.8379 53.9023 17.8379C53.8203 17.8262 53.7324 17.8145 53.6387 17.8027L53.4629 17.7676C53.4395 17.6387 53.416 17.5684 53.3926 17.5566C53.3691 17.5332 53.3457 17.5098 53.3223 17.4863C53.2637 17.4277 53.1992 17.3516 53.1289 17.2578C53.0703 17.1523 53.0586 17.0234 53.0938 16.8711C53.0352 16.7656 53 16.6602 52.9883 16.5547C52.918 16.6953 52.8652 16.8418 52.8301 16.9941L52.7598 17.1699L52.584 17.2051C52.5605 17.2168 52.543 17.2461 52.5312 17.293C52.5195 17.3281 52.5137 17.3574 52.5137 17.3809L52.4258 17.6797C52.4023 17.7031 52.3789 17.7266 52.3555 17.75C52.332 17.7617 52.3086 17.7793 52.2852 17.8027C52.2617 17.9082 52.2324 18.0137 52.1973 18.1191C52.1621 18.2246 52.127 18.3242 52.0918 18.418C52.0332 18.5703 51.9805 18.7227 51.9336 18.875C51.8984 19.0156 51.8867 19.1562 51.8984 19.2969L51.8281 19.4902C51.7695 19.5605 51.7051 19.6191 51.6348 19.666C51.5645 19.7012 51.4941 19.7363 51.4238 19.7715C51.4004 19.7949 51.3652 19.8184 51.3184 19.8418C51.2832 19.8535 51.2539 19.8652 51.2305 19.877L51.1777 20.0703L50.9668 20.1055C50.8379 20.1289 50.7441 20.1465 50.6855 20.1582C50.6387 20.1699 50.5801 20.1758 50.5098 20.1758L50.334 20.1582C50.2051 20.0527 50.1055 19.9707 50.0352 19.9121C49.9648 19.8418 49.8828 19.7773 49.7891 19.7188C49.6836 19.5781 49.625 19.4727 49.6133 19.4023C49.6016 19.332 49.5898 19.2676 49.5781 19.209C49.5547 19.1387 49.543 19.0801 49.543 19.0332C49.5312 18.9863 49.5137 18.9512 49.4902 18.9277L49.2617 18.7168L49.4551 18.5586L49.4727 18.2598C49.707 17.6621 49.9531 17.0879 50.2109 16.5371C50.4805 15.9863 50.7559 15.4238 51.0371 14.8496C51.1309 14.6621 51.2188 14.4746 51.3008 14.2871C51.3945 14.0996 51.4883 13.9121 51.582 13.7246C51.5703 13.6895 51.5645 13.6484 51.5645 13.6016C51.5645 13.5547 51.5762 13.502 51.5996 13.4434C51.7285 13.2441 51.834 13.0684 51.916 12.916C51.998 12.752 52.0801 12.5879 52.1621 12.4238C52.2559 12.2246 52.3496 12.0312 52.4434 11.8438C52.5488 11.6562 52.6777 11.4629 52.8301 11.2637L53.1113 11.1406C53.1465 11.1289 53.1875 11.1172 53.2344 11.1055C53.2812 11.082 53.334 11.0703 53.3926 11.0703L53.6562 11.1055C53.9844 10.9531 54.2715 10.7422 54.5176 10.4727C54.7637 10.1914 55.0156 9.85742 55.2734 9.4707L55.4492 9.22461L55.6777 9.36523C55.7363 9.40039 55.8184 9.43555 55.9238 9.4707C56.0293 9.49414 56.1406 9.52344 56.2578 9.55859C56.4688 9.60547 56.668 9.6582 56.8555 9.7168C57.043 9.77539 57.1953 9.86328 57.3125 9.98047C57.3828 10.168 57.4238 10.3086 57.4355 10.4023C57.4473 10.4961 57.4648 10.5898 57.4883 10.6836C57.5234 10.8828 57.5527 11.082 57.5762 11.2812C57.6113 11.4805 57.6348 11.7031 57.6465 11.9492C57.7051 12.1484 57.752 12.3477 57.7871 12.5469C57.834 12.7344 57.875 12.9277 57.9102 13.127C57.9688 13.4082 58.0273 13.6836 58.0859 13.9531C58.1445 14.2109 58.2207 14.457 58.3145 14.6914C58.4082 14.6914 58.4668 14.6973 58.4902 14.709C58.5488 14.6855 58.6074 14.668 58.666 14.6562C58.7363 14.6445 58.8125 14.6328 58.8945 14.6211L59.0879 14.6035L59.1582 14.7793C59.1699 14.8379 59.2285 14.8965 59.334 14.9551C59.4863 14.9668 59.5977 15.002 59.668 15.0605C59.7383 15.1074 59.8027 15.1602 59.8613 15.2188C59.9082 15.2656 59.9551 15.3008 60.002 15.3242L60.2656 15.4297L60.125 15.6934C60.0078 15.9043 59.8379 16.1094 59.6152 16.3086C59.4043 16.4961 59.1641 16.6543 58.8945 16.7832C58.9062 16.8535 58.9121 16.9238 58.9121 16.9941C58.9238 17.0527 58.9414 17.1172 58.9648 17.1875C59 17.3867 59.0293 17.5918 59.0527 17.8027C59.0762 18.0137 59.0762 18.2305 59.0527 18.4531L59.0176 18.5234ZM53.9375 15.4824C54.2891 15.459 54.6055 15.4355 54.8867 15.4121C55.1797 15.377 55.502 15.3242 55.8535 15.2539C55.7715 14.9023 55.6836 14.5391 55.5898 14.1641C55.4961 13.7773 55.3965 13.3965 55.291 13.0215L55.1855 13.1973C54.9512 13.4434 54.7227 13.7188 54.5 14.0234C54.2891 14.3281 54.1074 14.6152 53.9551 14.8848C53.8848 14.9902 53.8145 15.0957 53.7441 15.2012C53.6738 15.3066 53.6094 15.4121 53.5508 15.5176C53.6211 15.5059 53.6855 15.5 53.7441 15.5C53.8145 15.5 53.8789 15.4941 53.9375 15.4824ZM60.1074 12.0898C60.1895 11.8438 60.3184 11.6328 60.4941 11.457C60.6816 11.2812 60.8809 11.1348 61.0918 11.0176C61.3145 10.8887 61.543 10.7832 61.7773 10.7012C62.0117 10.6191 62.2344 10.5488 62.4453 10.4902C62.9141 10.291 63.4121 10.1035 63.9395 9.92773C64.4785 9.74023 65.0234 9.57617 65.5742 9.43555C66.1367 9.29492 66.7109 9.20703 67.2969 9.17188C67.8828 9.125 68.498 9.19531 69.1426 9.38281C69.1777 9.5 69.2305 9.61133 69.3008 9.7168C69.3711 9.82227 69.4414 9.92773 69.5117 10.0332C69.5938 10.1387 69.6641 10.2441 69.7227 10.3496C69.7812 10.4434 69.8164 10.543 69.8281 10.6484C69.9453 10.7539 70.0391 10.8711 70.1094 11C70.1797 11.1172 70.1914 11.2754 70.1445 11.4746C70.0273 11.5684 69.9102 11.6562 69.793 11.7383C69.6875 11.8086 69.5703 11.873 69.4414 11.9316C69.0078 11.8262 68.5684 11.791 68.123 11.8262C67.6777 11.8613 67.2793 11.8906 66.9277 11.9141C66.8223 11.8086 66.6934 11.7559 66.541 11.7559C66.4004 11.7559 66.248 11.7793 66.084 11.8262C65.9316 11.873 65.7734 11.9199 65.6094 11.9668C65.457 12.0137 65.3105 12.0254 65.1699 12.002C65.0527 12.0957 64.9062 12.1602 64.7305 12.1953C64.5664 12.2188 64.3848 12.2422 64.1855 12.2656C64.1738 12.3242 64.1855 12.3652 64.2207 12.3887C64.2559 12.4004 64.2617 12.4355 64.2383 12.4941C64.3086 12.5762 64.3965 12.6348 64.502 12.6699C64.6191 12.7051 64.7363 12.7402 64.8535 12.7754C64.9824 12.8105 65.0938 12.8574 65.1875 12.916C65.2812 12.9629 65.3457 13.0449 65.3809 13.1621C65.5566 13.1621 65.709 13.2031 65.8379 13.2852C65.9668 13.3672 66.0723 13.4668 66.1543 13.584C66.2363 13.7012 66.2949 13.8301 66.3301 13.9707C66.377 14.0996 66.4004 14.2168 66.4004 14.3223C66.4355 14.416 66.4766 14.457 66.5234 14.4453C66.5703 14.4336 66.623 14.457 66.6816 14.5156C66.7168 14.668 66.8047 14.8262 66.9453 14.9902C67.0859 15.1426 67.1973 15.3125 67.2793 15.5C67.3027 15.793 67.3203 16.0566 67.332 16.291C67.3438 16.5137 67.3027 16.7422 67.209 16.9766C67.0332 17.4102 66.7871 17.7969 66.4707 18.1367C66.166 18.4766 65.8145 18.7812 65.416 19.0508C65.0293 19.3086 64.6133 19.5312 64.168 19.7188C63.7227 19.9062 63.2891 20.0645 62.8672 20.1934C62.8203 20.1816 62.7734 20.1816 62.7266 20.1934C62.6797 20.2051 62.668 20.1758 62.6914 20.1055C62.5977 20.1875 62.4922 20.2402 62.375 20.2637C62.2695 20.2871 62.1523 20.293 62.0234 20.2812C61.8945 20.2812 61.7598 20.2754 61.6191 20.2637C61.4902 20.252 61.3672 20.2578 61.25 20.2812C61.168 20.1992 61.0918 20.1172 61.0215 20.0352C60.9629 19.9648 60.916 19.8711 60.8809 19.7539C60.8223 19.7539 60.793 19.7246 60.793 19.666C60.8047 19.6074 60.7871 19.5781 60.7402 19.5781C60.8105 19.4609 60.8398 19.3965 60.8281 19.3848C60.8281 19.3613 60.8105 19.3438 60.7754 19.332C60.752 19.3203 60.7285 19.3086 60.7051 19.2969C60.6816 19.2734 60.6758 19.2441 60.6875 19.209C60.7344 19.1152 60.752 19.0098 60.7402 18.8926C60.7285 18.7637 60.7168 18.6348 60.7051 18.5059C60.6934 18.377 60.6992 18.2539 60.7227 18.1367C60.7578 18.0195 60.8457 17.9258 60.9863 17.8555C61.3848 17.9023 61.7598 17.8906 62.1113 17.8203C62.4746 17.7383 62.8145 17.627 63.1309 17.4863C63.4473 17.3457 63.7461 17.1934 64.0273 17.0293C64.3203 16.8652 64.6074 16.7188 64.8887 16.5898C64.9238 16.4844 64.9707 16.3965 65.0293 16.3262C65.0996 16.2559 65.1699 16.1914 65.2402 16.1328C65.3105 16.0742 65.375 16.0098 65.4336 15.9395C65.4922 15.8691 65.5332 15.7812 65.5566 15.6758C65.5684 15.5938 65.5449 15.5469 65.4863 15.5352C65.4395 15.5117 65.416 15.4648 65.416 15.3945L65.2227 15.3418C65 15.2129 64.748 15.1074 64.4668 15.0254C64.1855 14.9316 63.9453 14.832 63.7461 14.7266C63.6172 14.7969 63.4941 14.8145 63.377 14.7793C63.2715 14.7441 63.1309 14.709 62.9551 14.6738C62.5566 14.6504 62.1699 14.6094 61.7949 14.5508C61.4316 14.4922 61.0801 14.3867 60.7402 14.2344C60.7168 14.1758 60.6875 14.123 60.6523 14.0762C60.6172 14.0293 60.5527 14.0176 60.459 14.041C60.3887 13.9473 60.3184 13.8594 60.248 13.7773C60.1777 13.6836 60.1133 13.584 60.0547 13.4785C60.0781 13.3379 60.0957 13.2207 60.1074 13.127C60.1191 13.0215 60.084 12.9219 60.002 12.8281C60.0488 12.6758 60.084 12.5527 60.1074 12.459C60.1309 12.3652 60.1309 12.2422 60.1074 12.0898ZM78.7754 19.3672C78.2129 19.3906 77.7148 19.3789 77.2812 19.332C76.8594 19.2852 76.4434 19.1738 76.0332 18.998C76.0098 18.9863 75.9863 18.957 75.9629 18.9102C75.9395 18.8633 75.916 18.8281 75.8926 18.8047C75.8223 18.7695 75.7344 18.7578 75.6289 18.7695C75.5352 18.7695 75.4531 18.7578 75.3828 18.7344C75.2891 18.6875 75.1426 18.5996 74.9434 18.4707C74.7441 18.3301 74.5625 18.2012 74.3984 18.084C74.1875 17.9199 73.9883 17.7559 73.8008 17.5918C73.6133 17.4277 73.4492 17.252 73.3086 17.0645C73.2734 17.0176 73.2266 16.9941 73.168 16.9941C73.1094 16.9824 73.0566 16.9648 73.0098 16.9414C72.6699 17.1523 72.3828 17.416 72.1484 17.7324C71.9141 18.0488 71.6914 18.3711 71.4805 18.6992C71.2695 19.0273 71.0469 19.3379 70.8125 19.6309C70.5781 19.9238 70.2793 20.1465 69.916 20.2988C69.8105 20.2988 69.7168 20.2812 69.6348 20.2461C69.5527 20.2109 69.4766 20.1641 69.4062 20.1055C69.3359 20.0586 69.2656 20.0117 69.1953 19.9648C69.125 19.918 69.0488 19.8828 68.9668 19.8594C68.9668 19.7188 68.9375 19.5898 68.8789 19.4727C68.832 19.3555 68.7793 19.2441 68.7207 19.1387C68.6738 19.0332 68.6387 18.9336 68.6152 18.8398C68.5918 18.7344 68.6152 18.6348 68.6855 18.541C68.6152 18.4707 68.5098 18.3945 68.3691 18.3125C68.4395 18.2422 68.4688 18.1777 68.457 18.1191C68.457 18.0605 68.4453 18.002 68.4219 17.9434C68.3984 17.8848 68.375 17.8203 68.3516 17.75C68.3398 17.6797 68.3574 17.6094 68.4043 17.5391C68.4629 17.5391 68.5332 17.5273 68.6152 17.5039C68.5449 17.4102 68.5098 17.3574 68.5098 17.3457C68.5215 17.3223 68.5098 17.293 68.4746 17.2578C68.4512 17.1875 68.4629 17.1465 68.5098 17.1348C68.5566 17.1113 68.6035 17.0879 68.6504 17.0645C68.6973 16.4902 68.7969 15.957 68.9492 15.4648C69.1016 14.9727 69.2715 14.498 69.459 14.041C69.6465 13.584 69.8281 13.1211 70.0039 12.6523C70.1914 12.1836 70.3438 11.6797 70.4609 11.1406C70.5898 11.0117 70.6895 10.8594 70.7598 10.6836C70.8418 10.5078 70.9238 10.332 71.0059 10.1562C71.0996 9.98047 71.1992 9.81055 71.3047 9.64648C71.4219 9.4707 71.5801 9.33008 71.7793 9.22461C71.9434 9.23633 72.0898 9.2832 72.2188 9.36523C72.3477 9.43555 72.5059 9.46484 72.6934 9.45312C72.7285 9.51172 72.7578 9.57031 72.7812 9.62891C72.8164 9.6875 72.8574 9.74609 72.9043 9.80469L73.168 9.75195C73.2969 9.85742 73.4082 9.99219 73.502 10.1562C73.6074 10.3086 73.6777 10.4727 73.7129 10.6484C73.748 10.8242 73.7422 10.9941 73.6953 11.1582C73.6484 11.3105 73.5371 11.4336 73.3613 11.5273C73.373 11.5859 73.373 11.6328 73.3613 11.668C73.3613 11.6914 73.3555 11.7148 73.3438 11.7383C73.332 11.7617 73.3262 11.7852 73.3262 11.8086C73.3262 11.832 73.3438 11.8672 73.3789 11.9141C73.1445 12.0898 72.9688 12.3359 72.8516 12.6523C72.7344 12.9688 72.6699 13.25 72.6582 13.4961C72.7988 13.3555 72.9512 13.2207 73.1152 13.0918C73.291 12.9512 73.4668 12.8164 73.6426 12.6875C73.8301 12.5586 74.0059 12.4355 74.1699 12.3184C74.3457 12.2012 74.5039 12.084 74.6445 11.9668C75.0312 11.6152 75.4004 11.334 75.752 11.123C76.1152 10.9004 76.4961 10.6543 76.8945 10.3848C76.9883 10.3613 77.0586 10.3613 77.1055 10.3848C77.1641 10.3965 77.2227 10.4141 77.2812 10.4375C77.2812 10.3672 77.2578 10.3262 77.2109 10.3145C77.1758 10.3027 77.1641 10.2559 77.1758 10.1738C77.3516 10.127 77.5039 10.0742 77.6328 10.0156C77.7617 9.94531 77.9023 9.88086 78.0547 9.82227C78.1602 9.92773 78.2598 10.0391 78.3535 10.1562C78.4473 10.2617 78.5762 10.3262 78.7402 10.3496C78.7988 10.4785 78.8691 10.5781 78.9512 10.6484C79.0332 10.707 79.1152 10.7656 79.1973 10.8242C79.2793 10.8828 79.3496 10.9531 79.4082 11.0352C79.4785 11.1172 79.5195 11.2461 79.5312 11.4219C79.4844 11.5039 79.4316 11.5918 79.373 11.6855C79.3262 11.7793 79.2793 11.8906 79.2324 12.0195C78.998 12.2305 78.7578 12.418 78.5117 12.582C78.2773 12.7461 78.0371 12.9043 77.791 13.0566C77.5449 13.209 77.293 13.3613 77.0352 13.5137C76.7773 13.666 76.5137 13.8477 76.2441 14.0586C76.1855 14.1406 76.1094 14.2168 76.0156 14.2871C75.9336 14.3457 75.8457 14.4102 75.752 14.4805C75.6582 14.5391 75.5703 14.6035 75.4883 14.6738C75.4062 14.7441 75.3418 14.8262 75.2949 14.9199C75.2598 14.9316 75.2246 14.9375 75.1895 14.9375C75.1543 14.9375 75.1191 14.9434 75.084 14.9551C75.0488 15.0371 74.9902 15.1016 74.9082 15.1484C74.8379 15.1953 74.791 15.2598 74.7676 15.3418C74.9434 15.7168 75.1719 16.0039 75.4531 16.2031C75.7344 16.4023 76.0508 16.5488 76.4023 16.6426C76.7539 16.7246 77.1348 16.7715 77.5449 16.7832C77.9551 16.7832 78.3828 16.7832 78.8281 16.7832C78.875 16.7715 78.8926 16.748 78.8809 16.7129C78.8809 16.666 78.9102 16.6484 78.9688 16.6602C79.25 16.7539 79.4668 16.8887 79.6191 17.0645C79.7715 17.2285 79.9531 17.3926 80.1641 17.5566C80.1406 18.002 80.0059 18.3711 79.7598 18.6641C79.5137 18.957 79.1855 19.1914 78.7754 19.3672ZM80.0762 12.0898C80.1582 11.8438 80.2871 11.6328 80.4629 11.457C80.6504 11.2812 80.8496 11.1348 81.0605 11.0176C81.2832 10.8887 81.5117 10.7832 81.7461 10.7012C81.9805 10.6191 82.2031 10.5488 82.4141 10.4902C82.8828 10.291 83.3809 10.1035 83.9082 9.92773C84.4473 9.74023 84.9922 9.57617 85.543 9.43555C86.1055 9.29492 86.6797 9.20703 87.2656 9.17188C87.8516 9.125 88.4668 9.19531 89.1113 9.38281C89.1465 9.5 89.1992 9.61133 89.2695 9.7168C89.3398 9.82227 89.4102 9.92773 89.4805 10.0332C89.5625 10.1387 89.6328 10.2441 89.6914 10.3496C89.75 10.4434 89.7852 10.543 89.7969 10.6484C89.9141 10.7539 90.0078 10.8711 90.0781 11C90.1484 11.1172 90.1602 11.2754 90.1133 11.4746C89.9961 11.5684 89.8789 11.6562 89.7617 11.7383C89.6562 11.8086 89.5391 11.873 89.4102 11.9316C88.9766 11.8262 88.5371 11.791 88.0918 11.8262C87.6465 11.8613 87.248 11.8906 86.8965 11.9141C86.791 11.8086 86.6621 11.7559 86.5098 11.7559C86.3691 11.7559 86.2168 11.7793 86.0527 11.8262C85.9004 11.873 85.7422 11.9199 85.5781 11.9668C85.4258 12.0137 85.2793 12.0254 85.1387 12.002C85.0215 12.0957 84.875 12.1602 84.6992 12.1953C84.5352 12.2188 84.3535 12.2422 84.1543 12.2656C84.1426 12.3242 84.1543 12.3652 84.1895 12.3887C84.2246 12.4004 84.2305 12.4355 84.207 12.4941C84.2773 12.5762 84.3652 12.6348 84.4707 12.6699C84.5879 12.7051 84.7051 12.7402 84.8223 12.7754C84.9512 12.8105 85.0625 12.8574 85.1562 12.916C85.25 12.9629 85.3145 13.0449 85.3496 13.1621C85.5254 13.1621 85.6777 13.2031 85.8066 13.2852C85.9355 13.3672 86.041 13.4668 86.123 13.584C86.2051 13.7012 86.2637 13.8301 86.2988 13.9707C86.3457 14.0996 86.3691 14.2168 86.3691 14.3223C86.4043 14.416 86.4453 14.457 86.4922 14.4453C86.5391 14.4336 86.5918 14.457 86.6504 14.5156C86.6855 14.668 86.7734 14.8262 86.9141 14.9902C87.0547 15.1426 87.166 15.3125 87.248 15.5C87.2715 15.793 87.2891 16.0566 87.3008 16.291C87.3125 16.5137 87.2715 16.7422 87.1777 16.9766C87.002 17.4102 86.7559 17.7969 86.4395 18.1367C86.1348 18.4766 85.7832 18.7812 85.3848 19.0508C84.998 19.3086 84.582 19.5312 84.1367 19.7188C83.6914 19.9062 83.2578 20.0645 82.8359 20.1934C82.7891 20.1816 82.7422 20.1816 82.6953 20.1934C82.6484 20.2051 82.6367 20.1758 82.6602 20.1055C82.5664 20.1875 82.4609 20.2402 82.3438 20.2637C82.2383 20.2871 82.1211 20.293 81.9922 20.2812C81.8633 20.2812 81.7285 20.2754 81.5879 20.2637C81.459 20.252 81.3359 20.2578 81.2188 20.2812C81.1367 20.1992 81.0605 20.1172 80.9902 20.0352C80.9316 19.9648 80.8848 19.8711 80.8496 19.7539C80.791 19.7539 80.7617 19.7246 80.7617 19.666C80.7734 19.6074 80.7559 19.5781 80.709 19.5781C80.7793 19.4609 80.8086 19.3965 80.7969 19.3848C80.7969 19.3613 80.7793 19.3438 80.7441 19.332C80.7207 19.3203 80.6973 19.3086 80.6738 19.2969C80.6504 19.2734 80.6445 19.2441 80.6562 19.209C80.7031 19.1152 80.7207 19.0098 80.709 18.8926C80.6973 18.7637 80.6855 18.6348 80.6738 18.5059C80.6621 18.377 80.668 18.2539 80.6914 18.1367C80.7266 18.0195 80.8145 17.9258 80.9551 17.8555C81.3535 17.9023 81.7285 17.8906 82.0801 17.8203C82.4434 17.7383 82.7832 17.627 83.0996 17.4863C83.416 17.3457 83.7148 17.1934 83.9961 17.0293C84.2891 16.8652 84.5762 16.7188 84.8574 16.5898C84.8926 16.4844 84.9395 16.3965 84.998 16.3262C85.0684 16.2559 85.1387 16.1914 85.209 16.1328C85.2793 16.0742 85.3438 16.0098 85.4023 15.9395C85.4609 15.8691 85.502 15.7812 85.5254 15.6758C85.5371 15.5938 85.5137 15.5469 85.4551 15.5352C85.4082 15.5117 85.3848 15.4648 85.3848 15.3945L85.1914 15.3418C84.9688 15.2129 84.7168 15.1074 84.4355 15.0254C84.1543 14.9316 83.9141 14.832 83.7148 14.7266C83.5859 14.7969 83.4629 14.8145 83.3457 14.7793C83.2402 14.7441 83.0996 14.709 82.9238 14.6738C82.5254 14.6504 82.1387 14.6094 81.7637 14.5508C81.4004 14.4922 81.0488 14.3867 80.709 14.2344C80.6855 14.1758 80.6562 14.123 80.6211 14.0762C80.5859 14.0293 80.5215 14.0176 80.4277 14.041C80.3574 13.9473 80.2871 13.8594 80.2168 13.7773C80.1465 13.6836 80.082 13.584 80.0234 13.4785C80.0469 13.3379 80.0645 13.2207 80.0762 13.127C80.0879 13.0215 80.0527 12.9219 79.9707 12.8281C80.0176 12.6758 80.0527 12.5527 80.0762 12.459C80.0996 12.3652 80.0996 12.2422 80.0762 12.0898ZM104.105 18.5234C104.035 18.7227 103.93 18.9277 103.789 19.1387C103.66 19.3379 103.502 19.5195 103.314 19.6836C103.139 19.8359 102.939 19.9648 102.717 20.0703C102.494 20.1758 102.26 20.2344 102.014 20.2461C101.861 20.2109 101.756 20.1699 101.697 20.123C101.65 20.0879 101.598 20.0527 101.539 20.0176C101.504 19.9941 101.469 19.9766 101.434 19.9648C101.41 19.9414 101.387 19.9238 101.363 19.9121L101.152 19.8242L101.223 19.5957C101.246 19.502 101.24 19.4316 101.205 19.3848C101.17 19.3262 101.1 19.25 100.994 19.1562C100.959 19.1211 100.924 19.0859 100.889 19.0508C100.854 19.0156 100.824 18.9805 100.801 18.9453L100.502 18.6113L100.977 18.4883C101.27 18.4062 101.463 18.3008 101.557 18.1719C101.662 18.043 101.703 17.8262 101.68 17.5215C101.445 17.4746 101.246 17.4688 101.082 17.5039C100.93 17.5391 100.771 17.5801 100.607 17.627C100.396 17.6855 100.18 17.7383 99.957 17.7852C99.7461 17.8203 99.5117 17.8379 99.2539 17.8379C99.1602 17.8379 99.0723 17.8379 98.9902 17.8379C98.9082 17.8262 98.8203 17.8145 98.7266 17.8027L98.5508 17.7676C98.5273 17.6387 98.5039 17.5684 98.4805 17.5566C98.457 17.5332 98.4336 17.5098 98.4102 17.4863C98.3516 17.4277 98.2871 17.3516 98.2168 17.2578C98.1582 17.1523 98.1465 17.0234 98.1816 16.8711C98.123 16.7656 98.0879 16.6602 98.0762 16.5547C98.0059 16.6953 97.9531 16.8418 97.918 16.9941L97.8477 17.1699L97.6719 17.2051C97.6484 17.2168 97.6309 17.2461 97.6191 17.293C97.6074 17.3281 97.6016 17.3574 97.6016 17.3809L97.5137 17.6797C97.4902 17.7031 97.4668 17.7266 97.4434 17.75C97.4199 17.7617 97.3965 17.7793 97.373 17.8027C97.3496 17.9082 97.3203 18.0137 97.2852 18.1191C97.25 18.2246 97.2148 18.3242 97.1797 18.418C97.1211 18.5703 97.0684 18.7227 97.0215 18.875C96.9863 19.0156 96.9746 19.1562 96.9863 19.2969L96.916 19.4902C96.8574 19.5605 96.793 19.6191 96.7227 19.666C96.6523 19.7012 96.582 19.7363 96.5117 19.7715C96.4883 19.7949 96.4531 19.8184 96.4062 19.8418C96.3711 19.8535 96.3418 19.8652 96.3184 19.877L96.2656 20.0703L96.0547 20.1055C95.9258 20.1289 95.832 20.1465 95.7734 20.1582C95.7266 20.1699 95.668 20.1758 95.5977 20.1758L95.4219 20.1582C95.293 20.0527 95.1934 19.9707 95.123 19.9121C95.0527 19.8418 94.9707 19.7773 94.877 19.7188C94.7715 19.5781 94.7129 19.4727 94.7012 19.4023C94.6895 19.332 94.6777 19.2676 94.666 19.209C94.6426 19.1387 94.6309 19.0801 94.6309 19.0332C94.6191 18.9863 94.6016 18.9512 94.5781 18.9277L94.3496 18.7168L94.543 18.5586L94.5605 18.2598C94.7949 17.6621 95.041 17.0879 95.2988 16.5371C95.5684 15.9863 95.8438 15.4238 96.125 14.8496C96.2188 14.6621 96.3066 14.4746 96.3887 14.2871C96.4824 14.0996 96.5762 13.9121 96.6699 13.7246C96.6582 13.6895 96.6523 13.6484 96.6523 13.6016C96.6523 13.5547 96.6641 13.502 96.6875 13.4434C96.8164 13.2441 96.9219 13.0684 97.0039 12.916C97.0859 12.752 97.168 12.5879 97.25 12.4238C97.3438 12.2246 97.4375 12.0312 97.5312 11.8438C97.6367 11.6562 97.7656 11.4629 97.918 11.2637L98.1992 11.1406C98.2344 11.1289 98.2754 11.1172 98.3223 11.1055C98.3691 11.082 98.4219 11.0703 98.4805 11.0703L98.7441 11.1055C99.0723 10.9531 99.3594 10.7422 99.6055 10.4727C99.8516 10.1914 100.104 9.85742 100.361 9.4707L100.537 9.22461L100.766 9.36523C100.824 9.40039 100.906 9.43555 101.012 9.4707C101.117 9.49414 101.229 9.52344 101.346 9.55859C101.557 9.60547 101.756 9.6582 101.943 9.7168C102.131 9.77539 102.283 9.86328 102.4 9.98047C102.471 10.168 102.512 10.3086 102.523 10.4023C102.535 10.4961 102.553 10.5898 102.576 10.6836C102.611 10.8828 102.641 11.082 102.664 11.2812C102.699 11.4805 102.723 11.7031 102.734 11.9492C102.793 12.1484 102.84 12.3477 102.875 12.5469C102.922 12.7344 102.963 12.9277 102.998 13.127C103.057 13.4082 103.115 13.6836 103.174 13.9531C103.232 14.2109 103.309 14.457 103.402 14.6914C103.496 14.6914 103.555 14.6973 103.578 14.709C103.637 14.6855 103.695 14.668 103.754 14.6562C103.824 14.6445 103.9 14.6328 103.982 14.6211L104.176 14.6035L104.246 14.7793C104.258 14.8379 104.316 14.8965 104.422 14.9551C104.574 14.9668 104.686 15.002 104.756 15.0605C104.826 15.1074 104.891 15.1602 104.949 15.2188C104.996 15.2656 105.043 15.3008 105.09 15.3242L105.354 15.4297L105.213 15.6934C105.096 15.9043 104.926 16.1094 104.703 16.3086C104.492 16.4961 104.252 16.6543 103.982 16.7832C103.994 16.8535 104 16.9238 104 16.9941C104.012 17.0527 104.029 17.1172 104.053 17.1875C104.088 17.3867 104.117 17.5918 104.141 17.8027C104.164 18.0137 104.164 18.2305 104.141 18.4531L104.105 18.5234ZM99.0254 15.4824C99.377 15.459 99.6934 15.4355 99.9746 15.4121C100.268 15.377 100.59 15.3242 100.941 15.2539C100.859 14.9023 100.771 14.5391 100.678 14.1641C100.584 13.7773 100.484 13.3965 100.379 13.0215L100.273 13.1973C100.039 13.4434 99.8105 13.7188 99.5879 14.0234C99.377 14.3281 99.1953 14.6152 99.043 14.8848C98.9727 14.9902 98.9023 15.0957 98.832 15.2012C98.7617 15.3066 98.6973 15.4121 98.6387 15.5176C98.709 15.5059 98.7734 15.5 98.832 15.5C98.9023 15.5 98.9668 15.4941 99.0254 15.4824ZM108.869 16.8008C108.764 16.8242 108.688 16.8887 108.641 16.9941C108.594 17.0879 108.547 17.1875 108.5 17.293C108.465 17.3984 108.424 17.498 108.377 17.5918C108.342 17.6738 108.283 17.7148 108.201 17.7148C108.189 17.8086 108.154 17.8906 108.096 17.9609C108.049 18.0312 108.002 18.1074 107.955 18.1895C107.908 18.2598 107.873 18.3418 107.85 18.4355C107.826 18.5176 107.838 18.6172 107.885 18.7344C107.791 18.8047 107.732 18.9043 107.709 19.0332C107.686 19.1621 107.656 19.2852 107.621 19.4023C107.598 19.5195 107.551 19.6191 107.48 19.7012C107.41 19.7832 107.281 19.8184 107.094 19.8066C107.059 19.8535 107.053 19.8828 107.076 19.8945C107.1 19.9062 107.117 19.9473 107.129 20.0176C107 19.9941 106.9 20 106.83 20.0352C106.771 20.082 106.695 20.1113 106.602 20.123C106.379 20.0527 106.191 19.9297 106.039 19.7539C105.898 19.5781 105.77 19.3848 105.652 19.1738C105.547 18.9512 105.447 18.7285 105.354 18.5059C105.271 18.2832 105.189 18.0898 105.107 17.9258C105.143 17.7969 105.148 17.6738 105.125 17.5566C105.102 17.4277 105.061 17.3223 105.002 17.2402C105.576 16.0215 106.203 14.7207 106.883 13.3379C107.562 11.9551 108.207 10.5898 108.816 9.24219C109.086 9.34766 109.35 9.4707 109.607 9.61133C109.877 9.74023 110.117 9.89258 110.328 10.0684C110.551 10.2441 110.738 10.4492 110.891 10.6836C111.043 10.9062 111.143 11.1582 111.189 11.4395C111.166 11.5098 111.137 11.5391 111.102 11.5273C111.078 11.5039 111.055 11.5098 111.031 11.5449C111.078 11.6035 111.102 11.6445 111.102 11.668C111.113 11.6914 111.113 11.7148 111.102 11.7383C111.102 11.7617 111.102 11.7969 111.102 11.8438C111.102 11.8789 111.119 11.9316 111.154 12.002C111.107 11.9902 111.072 11.9961 111.049 12.0195C111.037 12.043 111.002 12.043 110.943 12.0195C110.99 12.1484 111.002 12.2539 110.979 12.3359C110.967 12.418 110.943 12.4941 110.908 12.5645C110.873 12.623 110.844 12.6934 110.82 12.7754C110.797 12.8457 110.803 12.9395 110.838 13.0566C110.803 13.0566 110.773 13.0684 110.75 13.0918C110.738 13.1035 110.727 13.1211 110.715 13.1445C110.703 13.1562 110.686 13.1738 110.662 13.1973C110.65 13.209 110.627 13.209 110.592 13.1973C110.627 13.4551 110.639 13.7129 110.627 13.9707C110.615 14.2285 110.604 14.4922 110.592 14.7617C110.592 15.0195 110.598 15.2949 110.609 15.5879C110.621 15.8691 110.662 16.1621 110.732 16.4668C111.154 16.2207 111.488 15.9043 111.734 15.5176C111.992 15.1309 112.197 14.6973 112.35 14.2168C112.514 13.7363 112.637 13.2207 112.719 12.6699C112.801 12.1191 112.889 11.5566 112.982 10.9824C113.088 10.877 113.17 10.748 113.229 10.5957C113.287 10.4434 113.34 10.2852 113.387 10.1211C113.434 9.94531 113.48 9.77539 113.527 9.61133C113.574 9.43555 113.633 9.27734 113.703 9.13672C113.879 9.16016 114.025 9.21875 114.143 9.3125C114.271 9.39453 114.389 9.48828 114.494 9.59375C114.6 9.6875 114.711 9.78125 114.828 9.875C114.945 9.95703 115.092 10.0098 115.268 10.0332C115.408 10.2324 115.537 10.4258 115.654 10.6133C115.771 10.8008 115.848 11 115.883 11.2109C115.824 11.3047 115.777 11.4102 115.742 11.5273C115.719 11.6445 115.689 11.7617 115.654 11.8789C115.619 11.9961 115.572 12.1074 115.514 12.2129C115.455 12.3066 115.373 12.3887 115.268 12.459C115.232 12.7637 115.186 13.0449 115.127 13.3027C115.08 13.5488 115.027 13.7949 114.969 14.041C114.922 14.2871 114.881 14.5449 114.846 14.8145C114.811 15.0723 114.799 15.3594 114.811 15.6758C114.717 15.9453 114.617 16.2324 114.512 16.5371C114.406 16.8418 114.324 17.1172 114.266 17.3633C114.078 17.5156 113.932 17.6973 113.826 17.9082C113.721 18.1191 113.609 18.3301 113.492 18.541C113.445 18.5879 113.416 18.5996 113.404 18.5762C113.393 18.5527 113.352 18.5352 113.281 18.5234C113.293 18.5703 113.293 18.6055 113.281 18.6289C113.27 18.6523 113.252 18.6758 113.229 18.6992C113.217 18.7109 113.205 18.7344 113.193 18.7695C113.193 18.8047 113.205 18.8516 113.229 18.9102C113.064 18.9805 112.918 19.0801 112.789 19.209C112.66 19.3379 112.52 19.4551 112.367 19.5605C112.227 19.666 112.051 19.7363 111.84 19.7715C111.641 19.8066 111.377 19.7656 111.049 19.6484C110.568 19.2969 110.141 18.8926 109.766 18.4355C109.402 17.9785 109.104 17.4336 108.869 16.8008ZM124.092 15.2539C124.08 15.3125 124.068 15.3652 124.057 15.4121C124.045 15.4473 124.033 15.4824 124.021 15.5176C124.01 15.5527 124.004 15.5996 124.004 15.6582C124.004 15.7051 124.004 15.7695 124.004 15.8516C123.652 16.4727 123.207 16.9941 122.668 17.416C122.141 17.8379 121.555 18.2129 120.91 18.541C120.277 18.8574 119.615 19.1504 118.924 19.4199C118.232 19.6777 117.559 19.959 116.902 20.2637C116.621 20.1934 116.404 20.0762 116.252 19.9121C116.111 19.748 116 19.5605 115.918 19.3496C115.848 19.127 115.795 18.8867 115.76 18.6289C115.736 18.3594 115.713 18.084 115.689 17.8027C115.725 17.6738 115.771 17.5684 115.83 17.4863C115.9 17.3926 115.936 17.2637 115.936 17.0996C116.029 16.7949 116.123 16.4961 116.217 16.2031C116.311 15.9102 116.369 15.6113 116.393 15.3066C116.428 15.2129 116.492 15.1484 116.586 15.1133C116.645 14.5508 116.645 13.9824 116.586 13.4082C116.539 12.8223 116.445 12.2773 116.305 11.7734C116.316 11.6562 116.328 11.5742 116.34 11.5273C116.363 11.4688 116.363 11.4277 116.34 11.4043C116.328 11.3105 116.357 11.2637 116.428 11.2637C116.51 11.2637 116.592 11.2637 116.674 11.2637C116.674 11.0879 116.639 10.9121 116.568 10.7363C116.51 10.5605 116.451 10.3613 116.393 10.1387C116.475 9.96289 116.527 9.79297 116.551 9.62891C116.574 9.45312 116.627 9.30078 116.709 9.17188C117.342 9.37109 117.945 9.61133 118.52 9.89258C119.105 10.1738 119.68 10.3789 120.242 10.5078C120.664 10.8125 121.098 11.1172 121.543 11.4219C121.988 11.7148 122.393 12.043 122.756 12.4062C123.119 12.7578 123.424 13.1621 123.67 13.6191C123.916 14.0762 124.057 14.6211 124.092 15.2539ZM119.926 16.2207C120.172 16.127 120.412 16.0273 120.646 15.9219C120.893 15.8164 121.115 15.6992 121.314 15.5703C121.525 15.4297 121.713 15.2715 121.877 15.0957C122.041 14.9199 122.176 14.709 122.281 14.4629C122.211 14.3223 122.117 14.1992 122 14.0938C121.883 13.9766 121.766 13.8711 121.648 13.7773C121.531 13.6719 121.414 13.5664 121.297 13.4609C121.191 13.3555 121.104 13.2266 121.033 13.0742C120.881 13.0508 120.746 13.0098 120.629 12.9512C120.512 12.8809 120.395 12.8164 120.277 12.7578C120.172 12.6875 120.055 12.623 119.926 12.5645C119.809 12.5059 119.668 12.4707 119.504 12.459C119.246 12.3301 119.012 12.2363 118.801 12.1777C118.602 12.1191 118.449 12.043 118.344 11.9492C118.262 11.9492 118.197 11.9668 118.15 12.002C118.268 12.4473 118.355 12.8691 118.414 13.2676C118.473 13.6543 118.502 14.0469 118.502 14.4453C118.514 14.832 118.496 15.2305 118.449 15.6406C118.402 16.0508 118.338 16.4961 118.256 16.9766C118.373 16.9648 118.479 16.9414 118.572 16.9062C118.678 16.8594 118.777 16.8125 118.871 16.7656C118.977 16.7188 119.082 16.6777 119.188 16.6426C119.305 16.5957 119.439 16.5664 119.592 16.5547C119.627 16.4844 119.674 16.4258 119.732 16.3789C119.803 16.332 119.867 16.2793 119.926 16.2207ZM14.8877 44.7695C14.9463 45.1211 14.9229 45.3965 14.8174 45.5957C14.7236 45.7949 14.583 45.9414 14.3955 46.0352C14.2197 46.1406 14.0146 46.1992 13.7803 46.2109C13.5459 46.2227 13.3232 46.2109 13.1123 46.1758C12.9951 46.0117 12.8896 45.8066 12.7959 45.5605C12.7021 45.3145 12.6143 45.0625 12.5322 44.8047C12.4502 44.5352 12.374 44.2715 12.3037 44.0137C12.2451 43.7559 12.1924 43.5273 12.1455 43.3281C12.2041 43.1875 12.2393 43.0293 12.251 42.8535C12.2744 42.666 12.2861 42.4785 12.2861 42.291C12.2979 42.1035 12.3037 41.916 12.3037 41.7285C12.3154 41.5293 12.333 41.3418 12.3564 41.166C12.4385 40.6738 12.5557 40.2051 12.708 39.7598C12.8721 39.3145 13.001 38.8516 13.0947 38.3711C13.1182 38.2656 13.1064 38.166 13.0596 38.0723C13.0244 37.9785 13.0186 37.8906 13.042 37.8086C13.0537 37.7617 13.0889 37.7324 13.1475 37.7207C13.2061 37.6973 13.2412 37.6562 13.2529 37.5977C13.2881 37.4688 13.2939 37.3633 13.2705 37.2812C13.2588 37.1992 13.2822 37.0996 13.3408 36.9824C13.3994 36.8887 13.4697 36.7539 13.5518 36.5781C13.6455 36.3906 13.6807 36.1973 13.6572 35.998C13.7627 35.9277 13.8623 35.8457 13.9561 35.752C14.0498 35.6582 14.1436 35.5762 14.2373 35.5059C14.3428 35.4238 14.4541 35.3535 14.5713 35.2949C14.7002 35.2363 14.8525 35.207 15.0283 35.207C15.1221 35.3242 15.1807 35.4531 15.2041 35.5938C15.2393 35.7344 15.2686 35.875 15.292 36.0156C15.3271 36.1562 15.374 36.291 15.4326 36.4199C15.4912 36.5371 15.5908 36.6309 15.7314 36.7012C15.7314 36.7949 15.7314 36.9121 15.7314 37.0527C15.7314 37.1934 15.7373 37.334 15.749 37.4746C15.7607 37.6035 15.7842 37.7266 15.8193 37.8438C15.8662 37.9492 15.9365 38.0195 16.0303 38.0547C15.8193 38.6172 15.6201 39.1738 15.4326 39.7246C15.2568 40.2754 15.1104 40.832 14.9932 41.3945C14.876 41.9453 14.7998 42.502 14.7646 43.0645C14.7412 43.627 14.7822 44.1953 14.8877 44.7695ZM29.0908 45.6836C28.9736 45.7422 28.8623 45.7949 28.7568 45.8418C28.6631 45.8887 28.5518 45.9121 28.4229 45.9121C27.9658 45.5723 27.7256 44.9805 27.7021 44.1367C27.6904 43.293 27.8721 42.2207 28.2471 40.9199C28.3057 40.8848 28.335 40.8145 28.335 40.709L28.1768 40.5332C28.1299 40.5332 28.083 40.5391 28.0361 40.5508C28.001 40.5625 27.9717 40.6035 27.9482 40.6738C27.6436 40.8965 27.3096 41.1309 26.9463 41.377C26.583 41.6113 26.2021 41.834 25.8037 42.0449C25.417 42.2441 25.0186 42.4082 24.6084 42.5371C24.21 42.666 23.8174 42.7305 23.4307 42.7305C22.4463 42.7305 21.708 42.2324 21.2158 41.2363L21.0752 40.9727L20.9346 41.2012C20.8994 41.248 20.8467 41.3477 20.7764 41.5C20.7061 41.6406 20.6357 41.8047 20.5654 41.9922C20.4951 42.1797 20.4307 42.373 20.3721 42.5723C20.3252 42.7598 20.3076 42.9238 20.3193 43.0645C20.2139 43.1699 20.1025 43.293 19.9854 43.4336C19.8682 43.5742 19.7803 43.7324 19.7217 43.9082C19.6982 44.002 19.71 44.0898 19.7568 44.1719C19.7334 44.2773 19.6807 44.3594 19.5986 44.418C19.5518 44.4766 19.499 44.5352 19.4404 44.5938C19.3936 44.6406 19.3525 44.6934 19.3174 44.752C19.2939 44.8105 19.2764 44.8691 19.2646 44.9277C19.2646 44.9863 19.2588 45.0449 19.2471 45.1035C19.2471 45.1855 19.2354 45.2617 19.2119 45.332C19.0127 45.7422 18.8545 46.0059 18.7373 46.123C18.6201 46.252 18.4619 46.3164 18.2627 46.3164C18.1689 46.3164 18.0166 46.2988 17.8057 46.2637C17.6533 46.0996 17.5127 45.877 17.3838 45.5957C17.2666 45.3027 17.1729 44.9922 17.1025 44.6641C17.0439 44.3359 17.0146 44.0078 17.0146 43.6797C17.0264 43.3398 17.085 43.0469 17.1904 42.8008C17.1904 42.7891 17.2373 42.6719 17.3311 42.4492C17.4248 42.2266 17.542 41.9395 17.6826 41.5879C17.835 41.2363 18.0049 40.8496 18.1924 40.4277C18.3799 39.9941 18.5674 39.5781 18.7549 39.1797C18.9424 38.7695 19.1182 38.3945 19.2822 38.0547C19.458 37.7148 19.6045 37.457 19.7217 37.2812C19.8154 37.1406 19.8975 37.0117 19.9678 36.8945C20.0498 36.7656 20.126 36.6426 20.1963 36.5254C20.4072 36.1621 20.6064 35.8633 20.7939 35.6289C20.9932 35.3828 21.2803 35.1895 21.6553 35.0488C21.9131 35.1543 22.1006 35.2773 22.2178 35.418L22.2529 35.6113C22.2998 35.7285 22.3701 35.7871 22.4639 35.7871C22.5928 35.8223 22.6982 35.8574 22.7803 35.8926C22.874 35.916 22.9736 35.9395 23.0791 35.9629C23.1611 36.0566 23.2373 36.168 23.3076 36.2969C23.4014 36.4375 23.4893 36.5781 23.5713 36.7188C23.665 36.8477 23.7354 36.9824 23.7822 37.123C23.8408 37.252 23.8701 37.3867 23.8701 37.5273C23.8818 37.668 23.8584 37.8145 23.7998 37.9668L23.8174 38.1426C23.876 38.248 23.8877 38.3945 23.8525 38.582C23.8408 38.6641 23.835 38.752 23.835 38.8457C23.835 38.9277 23.8467 39.0215 23.8701 39.127C24.0811 39.291 24.2686 39.373 24.4326 39.373C24.6201 39.373 24.79 39.332 24.9424 39.25C25.1064 39.1562 25.2588 39.0625 25.3994 38.9688C25.4932 38.8984 25.5869 38.8398 25.6807 38.793C25.7744 38.7344 25.8682 38.6992 25.9619 38.6875C26.1729 38.4883 26.3604 38.3125 26.5244 38.1602C26.7002 38.0078 26.8818 37.8555 27.0693 37.7031C27.4209 37.4219 27.7607 37.1172 28.0889 36.7891C28.417 36.4609 28.6807 36.0508 28.8799 35.5586C28.9971 35.4883 29.1201 35.4531 29.249 35.4531C29.3779 35.4531 29.5127 35.4824 29.6533 35.541C29.7939 35.5996 29.9287 35.6582 30.0576 35.7168C30.0928 35.7402 30.1221 35.7578 30.1455 35.7695C30.1807 35.7812 30.21 35.793 30.2334 35.8047C30.2334 35.9219 30.2803 36.0215 30.374 36.1035C30.4209 36.1387 30.4502 36.1621 30.4619 36.1738C30.4736 36.1855 30.4912 36.1973 30.5146 36.209C30.6904 36.3027 30.8018 36.3965 30.8486 36.4902C30.9307 36.7598 31.0771 36.9648 31.2881 37.1055C31.2646 37.2227 31.2646 37.334 31.2881 37.4395C31.3232 37.5332 31.3643 37.6328 31.4111 37.7383C31.4229 37.7734 31.4346 37.8086 31.4463 37.8438C31.458 37.8789 31.4756 37.9199 31.499 37.9668L31.165 37.9316L31.2178 38.2656C31.2412 38.4297 31.2236 38.6113 31.165 38.8105C31.1182 39.0098 31.0596 39.168 30.9893 39.2852C31.001 39.5898 31.0068 39.8301 31.0068 40.0059C31.0186 40.1699 31.0127 40.3281 30.9893 40.4805C30.9658 40.6211 30.9307 40.7559 30.8838 40.8848C30.8486 41.0137 30.7959 41.1543 30.7256 41.3066C30.7725 42.0566 30.6846 42.7422 30.4619 43.3633C30.251 43.9727 30.0283 44.5469 29.7939 45.0859C29.7705 45.1445 29.7412 45.2031 29.7061 45.2617C29.6826 45.3203 29.6592 45.3789 29.6357 45.4375C29.5303 45.4727 29.4365 45.5137 29.3545 45.5605C29.2725 45.5957 29.1846 45.6367 29.0908 45.6836ZM38.2139 35.1016C38.7061 35.1602 39.1455 35.2598 39.5322 35.4004C39.9189 35.541 40.2471 35.7285 40.5166 35.9629C40.7041 36.2559 40.8799 36.5723 41.0439 36.9121C41.2197 37.252 41.3486 37.6094 41.4307 37.9844C41.5244 38.3477 41.5654 38.7227 41.5537 39.1094C41.5537 39.4961 41.4717 39.8887 41.3076 40.2871C40.9678 40.709 40.5518 41.0547 40.0596 41.3242C39.5791 41.582 39.0576 41.793 38.4951 41.957C37.9326 42.1211 37.3467 42.2617 36.7373 42.3789C36.1396 42.4961 35.5537 42.6133 34.9795 42.7305C34.9912 43 34.9912 43.2871 34.9795 43.5918C34.9795 43.8848 34.9502 44.1836 34.8916 44.4883C34.8447 44.7812 34.7686 45.0684 34.6631 45.3496C34.5576 45.6309 34.417 45.8887 34.2412 46.123C34.042 46.123 33.8369 46.1465 33.626 46.1934C33.415 46.252 33.2275 46.2988 33.0635 46.334C32.9814 46.2871 32.9053 46.2402 32.835 46.1934C32.7764 46.1582 32.6885 46.1348 32.5713 46.123C32.5947 46.0059 32.5654 45.8887 32.4834 45.7715C32.4014 45.6426 32.3193 45.5137 32.2373 45.3848C32.1553 45.2559 32.0967 45.1328 32.0615 45.0156C32.0381 44.8984 32.0967 44.7871 32.2373 44.6816C32.1553 44.5996 32.1143 44.4941 32.1143 44.3652C32.1963 44.2246 32.2666 44.0312 32.3252 43.7852C32.3955 43.5391 32.4482 43.2988 32.4834 43.0645C32.5303 42.8184 32.542 42.5957 32.5186 42.3965C32.4951 42.1973 32.3779 42.0508 32.167 41.957C32.1787 41.9336 32.2021 41.9219 32.2373 41.9219C32.2725 41.9219 32.3076 41.916 32.3428 41.9043C32.249 41.834 32.1904 41.7344 32.167 41.6055C32.1553 41.4766 32.1143 41.3652 32.0439 41.2715C32.0674 41.2129 32.085 41.1602 32.0967 41.1133C32.1084 41.0664 32.1494 41.0488 32.2197 41.0605C32.1846 40.8496 32.1846 40.6504 32.2197 40.4629C32.2666 40.2754 32.3311 40.0996 32.4131 39.9355C32.4951 39.7598 32.5947 39.5898 32.7119 39.4258C32.8291 39.2617 32.9404 39.0977 33.0459 38.9336C33.1279 38.9219 33.1748 38.9336 33.1865 38.9688C33.21 39.0039 33.251 38.998 33.3096 38.9512C33.4619 38.834 33.5674 38.7109 33.626 38.582C33.6846 38.4531 33.7139 38.3066 33.7139 38.1426C33.7959 37.8965 33.8955 37.6504 34.0127 37.4043C34.1299 37.1465 34.2588 36.9121 34.3994 36.7012C34.54 36.4902 34.6924 36.3027 34.8564 36.1387C35.0322 35.9746 35.2139 35.8516 35.4014 35.7695C35.542 35.6523 35.7178 35.5469 35.9287 35.4531C36.1396 35.3477 36.3682 35.2715 36.6143 35.2246C36.8604 35.166 37.1064 35.1367 37.3525 35.1367C37.6104 35.125 37.8447 35.1484 38.0557 35.207C38.1143 35.2305 38.1436 35.2188 38.1436 35.1719C38.1553 35.125 38.1787 35.1016 38.2139 35.1016ZM37.4932 39.3027C37.7861 39.1738 38.0967 39.0742 38.4248 39.0039C38.7646 38.9219 39.0459 38.7754 39.2686 38.5645C39.1279 38.4355 38.9229 38.3242 38.6533 38.2305C38.3838 38.125 38.0908 38.0605 37.7744 38.0371C37.458 38.0137 37.1357 38.043 36.8076 38.125C36.4912 38.1953 36.2158 38.3359 35.9814 38.5469C35.9111 38.7578 35.8525 38.9277 35.8057 39.0566C35.7588 39.1738 35.6943 39.3203 35.6123 39.4961C35.6357 39.5547 35.6709 39.6016 35.7178 39.6367C35.7764 39.6602 35.8174 39.7012 35.8408 39.7598C36.1104 39.6191 36.3799 39.543 36.6494 39.5312C36.9307 39.5078 37.2119 39.4316 37.4932 39.3027ZM51.2744 40.7266C51.2627 40.8672 51.2744 41.002 51.3096 41.1309C51.3447 41.2598 51.3857 41.3887 51.4326 41.5176C51.4912 41.6348 51.5439 41.7578 51.5908 41.8867C51.6377 42.0156 51.6729 42.1445 51.6963 42.2734C51.7197 42.4375 51.7197 42.6191 51.6963 42.8184C51.6729 43.0059 51.6318 43.1934 51.5732 43.3809C51.5146 43.5566 51.4385 43.7207 51.3447 43.873C51.251 44.0137 51.1396 44.1191 51.0107 44.1895C50.8467 44.4004 50.6475 44.5645 50.4131 44.6816C50.1787 44.7988 49.9619 44.9395 49.7627 45.1035C49.6338 45.1855 49.4873 45.2441 49.3232 45.2793C49.1709 45.3145 49.0127 45.3496 48.8486 45.3848C48.7197 45.4551 48.5674 45.5312 48.3916 45.6133C48.2158 45.6836 48.0342 45.7539 47.8467 45.8242C47.6592 45.8828 47.4717 45.9297 47.2842 45.9648C47.0967 45.9883 46.9326 45.9941 46.792 45.9824C46.4404 46.1113 46.0947 46.1934 45.7549 46.2285C45.4268 46.2754 45.04 46.252 44.5947 46.1582C44.1729 46.2168 43.7803 46.1992 43.417 46.1055C43.0654 46.0117 42.749 45.8652 42.4678 45.666C42.1982 45.4551 41.958 45.209 41.7471 44.9277C41.5479 44.6348 41.3838 44.3301 41.2549 44.0137C41.1611 43.3457 41.1846 42.7422 41.3252 42.2031C41.4658 41.6523 41.665 41.1484 41.9229 40.6914C42.1924 40.2227 42.4971 39.7949 42.8369 39.4082C43.1768 39.0098 43.5049 38.623 43.8213 38.248C43.8916 38.2715 43.9443 38.2715 43.9795 38.248C44.0264 38.2129 44.0674 38.1719 44.1025 38.125C44.1377 38.0664 44.1729 38.0137 44.208 37.9668C44.2549 37.9199 44.3076 37.8906 44.3662 37.8789C44.4482 37.7031 44.5654 37.5742 44.7178 37.4922C44.8818 37.3984 45.0107 37.2695 45.1045 37.1055C45.21 37.082 45.2979 37.0469 45.3682 37C45.4385 36.9531 45.5029 36.9004 45.5615 36.8418C45.6318 36.7832 45.7021 36.7305 45.7725 36.6836C45.8428 36.625 45.9248 36.584 46.0186 36.5605V36.3672C46.2295 36.2734 46.3818 36.168 46.4756 36.0508C46.5811 35.9219 46.7041 35.7695 46.8447 35.5938C46.9502 35.582 47.0322 35.5762 47.0908 35.5762C47.1611 35.5762 47.2607 35.5645 47.3896 35.541C47.4834 35.377 47.5654 35.2539 47.6357 35.1719C47.7178 35.0898 47.835 35.002 47.9873 34.9082C48.1279 34.9785 48.2803 35.0254 48.4443 35.0488C48.6201 35.0723 48.7725 35.1484 48.9014 35.2773C48.9131 35.3945 48.9482 35.4883 49.0068 35.5586C49.0654 35.6172 49.1299 35.6758 49.2002 35.7344C49.2705 35.7812 49.335 35.834 49.3936 35.8926C49.4639 35.9512 49.5107 36.0332 49.5342 36.1387C49.5811 36.1504 49.6104 36.1445 49.6221 36.1211C49.6455 36.0977 49.6807 36.0918 49.7275 36.1035C49.7627 36.2676 49.8037 36.3789 49.8506 36.4375C49.8975 36.4844 49.9443 36.584 49.9912 36.7363C49.9326 36.8535 49.8857 36.9766 49.8506 37.1055C49.8271 37.2227 49.7568 37.3105 49.6396 37.3691C49.6279 37.4512 49.6514 37.498 49.71 37.5098C49.7686 37.5098 49.8037 37.5391 49.8154 37.5977C49.8271 37.7031 49.8096 37.7793 49.7627 37.8262C50.0439 38.2832 50.2959 38.7695 50.5186 39.2852C50.7412 39.7891 50.9932 40.2695 51.2744 40.7266ZM49.0771 42.3965C49.124 42.2676 49.1826 42.1621 49.2529 42.0801C49.335 41.998 49.3818 41.875 49.3936 41.7109C49.335 41.6172 49.2998 41.5469 49.2881 41.5C49.2764 41.4414 49.2705 41.3535 49.2705 41.2363C49.0127 40.873 48.79 40.4863 48.6025 40.0762C48.415 39.6543 48.2041 39.2617 47.9697 38.8984C47.9463 38.9453 47.9053 38.9922 47.8467 39.0391C47.7881 39.0859 47.7236 39.0742 47.6533 39.0039C47.6299 39.0977 47.5889 39.168 47.5303 39.2148C47.4717 39.25 47.4072 39.2676 47.3369 39.2676C47.2666 39.2559 47.1904 39.2383 47.1084 39.2148C47.0381 39.1797 46.9736 39.1387 46.915 39.0918C46.5752 39.3613 46.2354 39.625 45.8955 39.8828C45.5557 40.1406 45.251 40.4395 44.9814 40.7793C44.9346 40.8027 44.9053 40.8145 44.8936 40.8145C44.8818 40.8027 44.8467 40.8086 44.7881 40.832C44.6943 41.0547 44.5771 41.2598 44.4365 41.4473C44.3076 41.623 44.1787 41.8047 44.0498 41.9922C43.9209 42.1797 43.8096 42.3789 43.7158 42.5898C43.6221 42.8008 43.5693 43.0469 43.5576 43.3281C43.7568 43.4922 43.9912 43.5918 44.2607 43.627C44.5303 43.6621 44.8057 43.668 45.0869 43.6445C45.3799 43.6211 45.6611 43.5859 45.9307 43.5391C46.2119 43.4805 46.4697 43.4512 46.7041 43.4512C47.1963 43.334 47.6182 43.1816 47.9697 42.9941C48.3213 42.7949 48.6904 42.5957 49.0771 42.3965ZM55.1768 44.1719C55.0479 44.6406 54.9307 44.998 54.8252 45.2441C54.7314 45.4785 54.585 45.7246 54.3857 45.9824C54.2334 45.959 54.1279 45.9766 54.0693 46.0352C54.0107 46.0938 53.9463 46.1465 53.876 46.1934C53.7705 46.2168 53.6943 46.2168 53.6475 46.1934C53.6006 46.1699 53.5596 46.1406 53.5244 46.1055C53.4893 46.082 53.4424 46.0527 53.3838 46.0176C53.3369 45.9941 53.2607 45.9824 53.1553 45.9824C53.1318 45.8887 53.1025 45.8008 53.0674 45.7188C53.0439 45.6367 52.9678 45.6074 52.8389 45.6309C52.8623 45.5371 52.8682 45.4609 52.8564 45.4023C52.8447 45.332 52.8271 45.2734 52.8037 45.2266C52.792 45.168 52.7803 45.1152 52.7686 45.0684C52.7568 45.0098 52.7627 44.9395 52.7861 44.8574C52.7275 44.8574 52.6807 44.8164 52.6455 44.7344C52.6104 44.6523 52.5693 44.5703 52.5225 44.4883C52.5576 44.2773 52.5928 44.0781 52.6279 43.8906C52.6631 43.7031 52.7041 43.5273 52.751 43.3633C52.8096 43.1992 52.8564 43.0352 52.8916 42.8711C52.9268 42.707 52.9092 42.5371 52.8389 42.3613C52.8857 42.3965 52.9209 42.3906 52.9443 42.3438C52.9678 42.2852 52.9854 42.2148 52.9971 42.1328C53.0088 42.0391 53.0146 41.9512 53.0146 41.8691C53.0146 41.7754 53.0088 41.6992 52.9971 41.6406C53.1143 41.3359 53.208 41.0254 53.2783 40.709C53.3604 40.3809 53.4307 40.0586 53.4893 39.7422C53.5596 39.4258 53.6299 39.1152 53.7002 38.8105C53.7705 38.5059 53.8643 38.2246 53.9814 37.9668C54.1104 37.9434 54.251 37.9609 54.4033 38.0195C54.5674 38.0664 54.667 38.1309 54.7021 38.2129C55.0068 37.9785 55.2764 37.6973 55.5107 37.3691C55.7451 37.0293 55.9854 36.7012 56.2314 36.3848C56.4775 36.0684 56.7471 35.7871 57.04 35.541C57.3447 35.2949 57.7256 35.1484 58.1826 35.1016C58.417 35.2773 58.6748 35.459 58.9561 35.6465C59.249 35.8223 59.4893 36.0566 59.6768 36.3496C59.7705 36.3965 59.8467 36.4492 59.9053 36.5078C59.9756 36.5547 60.0576 36.6074 60.1514 36.666V36.877C60.292 37.0059 60.4033 37.1582 60.4854 37.334C60.5791 37.498 60.6611 37.6797 60.7314 37.8789C60.8018 38.0664 60.8721 38.2598 60.9424 38.459C61.0127 38.6465 61.0947 38.8281 61.1885 39.0039C61.165 39.0625 61.1533 39.1152 61.1533 39.1621C61.1533 39.1973 61.1592 39.2383 61.1709 39.2852C61.1943 39.332 61.2119 39.3789 61.2236 39.4258C61.2354 39.4727 61.2354 39.5371 61.2236 39.6191C61.1885 40.1348 61.0186 40.5508 60.7139 40.8672C60.4209 41.1836 60.0635 41.4473 59.6416 41.6582C59.2197 41.8574 58.7686 42.0273 58.2881 42.168C57.8076 42.3086 57.374 42.4609 56.9873 42.625C56.9873 42.6719 57.0049 42.6953 57.04 42.6953C57.0869 42.6953 57.1045 42.7246 57.0928 42.7832C57.374 42.959 57.5967 43.0996 57.7607 43.2051C57.9248 43.3105 58.0771 43.3984 58.2178 43.4688C58.3701 43.5391 58.5283 43.6035 58.6924 43.6621C58.8682 43.709 59.1084 43.7676 59.4131 43.8379C59.7178 43.9082 59.9521 43.9668 60.1162 44.0137C60.292 44.0488 60.4502 44.084 60.5908 44.1191C60.7314 44.1426 60.8721 44.166 61.0127 44.1895C61.165 44.2012 61.376 44.2188 61.6455 44.2422C61.751 44.3477 61.8389 44.4766 61.9092 44.6289C61.9912 44.7695 62.0439 44.916 62.0674 45.0684C62.0908 45.209 62.0967 45.3496 62.085 45.4902C62.0732 45.6191 62.0322 45.7246 61.9619 45.8066C61.9736 45.8418 61.9971 45.8594 62.0322 45.8594C62.0791 45.8477 62.126 45.8477 62.1729 45.8594C62.1025 45.9062 62.0439 45.9648 61.9971 46.0352C61.9502 46.1055 61.9033 46.1758 61.8564 46.2461C61.8096 46.3164 61.7568 46.375 61.6982 46.4219C61.6396 46.4805 61.5576 46.5156 61.4521 46.5273C61.0889 46.668 60.6318 46.6738 60.0811 46.5449C59.5303 46.4277 58.833 46.2051 57.9893 45.877C57.5674 45.7129 57.2217 45.5723 56.9521 45.4551C56.6943 45.3262 56.4658 45.2031 56.2666 45.0859C56.0791 44.957 55.9033 44.8223 55.7393 44.6816C55.5869 44.541 55.3994 44.3711 55.1768 44.1719ZM57.6904 38.1426C57.5615 38.3301 57.415 38.5 57.251 38.6523C57.0986 38.8047 56.9463 38.9629 56.7939 39.127C56.6533 39.2793 56.5244 39.4551 56.4072 39.6543C56.29 39.8418 56.208 40.0645 56.1611 40.3223C56.5713 40.2754 56.999 40.1641 57.4443 39.9883C57.8896 39.8008 58.3115 39.625 58.71 39.4609C58.6631 39.0977 58.5342 38.8047 58.3232 38.582C58.124 38.3594 57.9131 38.2129 57.6904 38.1426ZM71.542 37.5449C71.249 37.5449 70.9326 37.5684 70.5928 37.6152C70.2529 37.6504 69.9189 37.6914 69.5908 37.7383C69.3564 37.7734 69.1279 37.8027 68.9053 37.8262C68.6943 37.8496 68.501 37.8672 68.3252 37.8789C68.2432 38.1367 68.1611 38.3652 68.0791 38.5645C67.9971 38.7637 67.9092 38.957 67.8154 39.1445C67.7217 39.3438 67.6338 39.5488 67.5518 39.7598C67.4814 39.959 67.4111 40.1758 67.3408 40.4102C67.2236 40.5977 67.124 40.7734 67.042 40.9375C66.9717 41.0898 66.9131 41.2656 66.8662 41.4648C66.7256 41.6406 66.6201 41.8281 66.5498 42.0273C66.4795 42.2148 66.4268 42.3789 66.3916 42.5195L66.3213 42.7305C66.251 42.8008 66.21 42.8594 66.1982 42.9062C66.1865 42.9414 66.1572 42.9766 66.1104 43.0117C66.0986 43.1406 66.0576 43.2695 65.9873 43.3984C65.9639 43.457 65.9463 43.5156 65.9346 43.5742C65.9229 43.6211 65.917 43.6562 65.917 43.6797C65.917 43.7969 65.8877 43.873 65.8291 43.9082C65.8408 43.9668 65.8408 44.0312 65.8291 44.1016C65.8174 44.1602 65.8057 44.2188 65.7939 44.2773C65.7588 44.418 65.7471 44.5293 65.7588 44.6113C65.7939 44.6582 65.8232 44.6992 65.8467 44.7344C65.8818 44.7695 65.9053 44.8164 65.917 44.875C65.9873 44.9219 66.04 44.9512 66.0752 44.9629C66.1221 44.998 66.1924 45.0391 66.2861 45.0859L66.4443 45.2617C66.5029 45.6016 66.4502 45.8711 66.2861 46.0703C66.1104 46.293 65.8115 46.4043 65.3896 46.4043H65.1787C65.1201 46.3457 65.085 46.2988 65.0732 46.2637C64.9795 46.2285 64.9033 46.1992 64.8447 46.1758C64.7861 46.1523 64.7334 46.1055 64.6865 46.0352C64.5342 45.9648 64.4111 45.9062 64.3174 45.8594L64.1592 45.7715C64.1592 45.6426 64.1592 45.5723 64.1592 45.5605C64.0771 45.4551 64.0127 45.3379 63.9658 45.209C63.9307 45.0801 63.9014 44.9512 63.8779 44.8223C63.8545 44.7168 63.8252 44.6172 63.79 44.5234C63.7666 44.4297 63.7314 44.3477 63.6846 44.2773C63.6611 43.5977 63.7256 43.0234 63.8779 42.5547C64.0303 42.0859 64.1885 41.6348 64.3525 41.2012C64.4463 40.9668 64.54 40.7324 64.6338 40.498C64.7275 40.252 64.8096 40 64.8799 39.7422L65.0381 39.5664C65.1201 39.3789 65.1846 39.2266 65.2314 39.1094C65.29 38.9805 65.3486 38.8516 65.4072 38.7227C65.4424 38.6406 65.4717 38.5645 65.4951 38.4941C65.5303 38.4121 65.5596 38.3418 65.583 38.2832C65.5127 38.2832 65.4482 38.2891 65.3896 38.3008C65.3311 38.3008 65.2725 38.3066 65.2139 38.3184C65.1436 38.3301 65.0791 38.3418 65.0205 38.3535C64.9619 38.3535 64.9033 38.3535 64.8447 38.3535C64.7627 38.3535 64.7041 38.3477 64.6689 38.3359C64.54 38.3945 64.3994 38.4238 64.2471 38.4238H64.0713C64.0361 38.4238 64.001 38.4238 63.9658 38.4238C63.9424 38.4121 63.9189 38.4062 63.8955 38.4062C63.7783 38.4062 63.6846 38.4238 63.6143 38.459C63.4736 38.459 63.3389 38.459 63.21 38.459H63.0342C63.0107 38.459 62.9814 38.4648 62.9463 38.4766C62.9111 38.4766 62.8818 38.4766 62.8584 38.4766C62.7764 38.4766 62.6885 38.4707 62.5947 38.459C62.501 38.4355 62.4014 38.3945 62.2959 38.3359C62.1553 38.1484 62.0615 38.0488 62.0146 38.0371L61.8564 37.8262C61.8447 37.7559 61.8271 37.6914 61.8037 37.6328C61.7803 37.5625 61.7568 37.4863 61.7334 37.4043C61.6865 37.2871 61.6396 37.1641 61.5928 37.0352C61.5576 36.8945 61.54 36.7305 61.54 36.543C61.5518 36.4492 61.5752 36.3789 61.6104 36.332C61.6455 36.2852 61.6748 36.2441 61.6982 36.209L61.751 35.9453L61.9795 35.9629H62.4717C62.8467 35.9629 63.2275 35.9512 63.6143 35.9277C64.001 35.8926 64.3994 35.8574 64.8096 35.8223C65.0439 35.7988 65.2783 35.7754 65.5127 35.752C65.7588 35.7285 66.0107 35.7051 66.2686 35.6816C66.3154 35.5762 66.3623 35.4766 66.4092 35.3828L66.585 35.2949C66.7959 35.2832 66.9424 35.3125 67.0244 35.3828C67.1182 35.4414 67.1943 35.5 67.2529 35.5586C67.5107 35.5352 67.7686 35.5117 68.0264 35.4883C68.2959 35.4531 68.5654 35.4121 68.835 35.3652C69.2334 35.3066 69.6318 35.2539 70.0303 35.207C70.4404 35.1602 70.833 35.1367 71.208 35.1367C71.3721 35.1367 71.5303 35.1426 71.6826 35.1543C71.835 35.166 71.9756 35.1836 72.1045 35.207L72.2803 35.3301C72.3154 35.4004 72.3623 35.4648 72.4209 35.5234C72.4912 35.582 72.5615 35.6406 72.6318 35.6992C72.7725 35.8281 72.9131 35.9805 73.0537 36.1562C73.1943 36.332 73.2471 36.5898 73.2119 36.9297C73.1182 37.0703 73.0479 37.1523 73.001 37.1758L72.8428 37.3867L72.667 37.3691C72.5967 37.3691 72.5322 37.3809 72.4736 37.4043C72.415 37.416 72.3564 37.4336 72.2979 37.457C72.251 37.4805 72.2041 37.5039 72.1572 37.5273C72.1104 37.5391 72.0576 37.5508 71.999 37.5625C71.8936 37.5625 71.8057 37.5625 71.7354 37.5625C71.6768 37.5508 71.6123 37.5449 71.542 37.5449ZM83.46 35.1016C83.9521 35.1602 84.3916 35.2598 84.7783 35.4004C85.165 35.541 85.4932 35.7285 85.7627 35.9629C85.9502 36.2559 86.126 36.5723 86.29 36.9121C86.4658 37.252 86.5947 37.6094 86.6768 37.9844C86.7705 38.3477 86.8115 38.7227 86.7998 39.1094C86.7998 39.4961 86.7178 39.8887 86.5537 40.2871C86.2139 40.709 85.7979 41.0547 85.3057 41.3242C84.8252 41.582 84.3037 41.793 83.7412 41.957C83.1787 42.1211 82.5928 42.2617 81.9834 42.3789C81.3857 42.4961 80.7998 42.6133 80.2256 42.7305C80.2373 43 80.2373 43.2871 80.2256 43.5918C80.2256 43.8848 80.1963 44.1836 80.1377 44.4883C80.0908 44.7812 80.0146 45.0684 79.9092 45.3496C79.8037 45.6309 79.6631 45.8887 79.4873 46.123C79.2881 46.123 79.083 46.1465 78.8721 46.1934C78.6611 46.252 78.4736 46.2988 78.3096 46.334C78.2275 46.2871 78.1514 46.2402 78.0811 46.1934C78.0225 46.1582 77.9346 46.1348 77.8174 46.123C77.8408 46.0059 77.8115 45.8887 77.7295 45.7715C77.6475 45.6426 77.5654 45.5137 77.4834 45.3848C77.4014 45.2559 77.3428 45.1328 77.3076 45.0156C77.2842 44.8984 77.3428 44.7871 77.4834 44.6816C77.4014 44.5996 77.3604 44.4941 77.3604 44.3652C77.4424 44.2246 77.5127 44.0312 77.5713 43.7852C77.6416 43.5391 77.6943 43.2988 77.7295 43.0645C77.7764 42.8184 77.7881 42.5957 77.7646 42.3965C77.7412 42.1973 77.624 42.0508 77.4131 41.957C77.4248 41.9336 77.4482 41.9219 77.4834 41.9219C77.5186 41.9219 77.5537 41.916 77.5889 41.9043C77.4951 41.834 77.4365 41.7344 77.4131 41.6055C77.4014 41.4766 77.3604 41.3652 77.29 41.2715C77.3135 41.2129 77.3311 41.1602 77.3428 41.1133C77.3545 41.0664 77.3955 41.0488 77.4658 41.0605C77.4307 40.8496 77.4307 40.6504 77.4658 40.4629C77.5127 40.2754 77.5771 40.0996 77.6592 39.9355C77.7412 39.7598 77.8408 39.5898 77.958 39.4258C78.0752 39.2617 78.1865 39.0977 78.292 38.9336C78.374 38.9219 78.4209 38.9336 78.4326 38.9688C78.4561 39.0039 78.4971 38.998 78.5557 38.9512C78.708 38.834 78.8135 38.7109 78.8721 38.582C78.9307 38.4531 78.96 38.3066 78.96 38.1426C79.042 37.8965 79.1416 37.6504 79.2588 37.4043C79.376 37.1465 79.5049 36.9121 79.6455 36.7012C79.7861 36.4902 79.9385 36.3027 80.1025 36.1387C80.2783 35.9746 80.46 35.8516 80.6475 35.7695C80.7881 35.6523 80.9639 35.5469 81.1748 35.4531C81.3857 35.3477 81.6143 35.2715 81.8604 35.2246C82.1064 35.166 82.3525 35.1367 82.5986 35.1367C82.8564 35.125 83.0908 35.1484 83.3018 35.207C83.3604 35.2305 83.3896 35.2188 83.3896 35.1719C83.4014 35.125 83.4248 35.1016 83.46 35.1016ZM82.7393 39.3027C83.0322 39.1738 83.3428 39.0742 83.6709 39.0039C84.0107 38.9219 84.292 38.7754 84.5146 38.5645C84.374 38.4355 84.1689 38.3242 83.8994 38.2305C83.6299 38.125 83.3369 38.0605 83.0205 38.0371C82.7041 38.0137 82.3818 38.043 82.0537 38.125C81.7373 38.1953 81.4619 38.3359 81.2275 38.5469C81.1572 38.7578 81.0986 38.9277 81.0518 39.0566C81.0049 39.1738 80.9404 39.3203 80.8584 39.4961C80.8818 39.5547 80.917 39.6016 80.9639 39.6367C81.0225 39.6602 81.0635 39.7012 81.0869 39.7598C81.3564 39.6191 81.626 39.543 81.8955 39.5312C82.1768 39.5078 82.458 39.4316 82.7393 39.3027ZM90.9131 45.8066C90.585 45.9121 90.2275 46.0176 89.8408 46.123C89.4541 46.2285 89.0674 46.2812 88.6807 46.2812C88.0947 46.2812 87.6318 46.1348 87.292 45.8418C87.2334 45.7129 87.1807 45.625 87.1338 45.5781C87.0986 45.5312 87.0635 45.4844 87.0283 45.4375C87.0049 45.3789 86.9873 45.3027 86.9756 45.209C86.835 45.0449 86.7236 44.8574 86.6416 44.6465C86.5596 44.4238 86.501 44.2012 86.4658 43.9785C86.4424 43.7441 86.4365 43.5098 86.4482 43.2754C86.4717 43.041 86.5127 42.8184 86.5713 42.6074C86.5947 42.5605 86.6064 42.5137 86.6064 42.4668C86.6182 42.4199 86.6299 42.3672 86.6416 42.3086C86.6885 42.1211 86.7354 41.9395 86.7822 41.7637C86.8408 41.5879 86.917 41.4355 87.0107 41.3066C86.9639 41.2012 86.9639 41.084 87.0107 40.9551C87.0576 40.8262 87.1104 40.709 87.1689 40.6035C87.333 40.1582 87.4678 39.7832 87.5732 39.4785C87.6904 39.1621 87.8076 38.8516 87.9248 38.5469C88.124 38.0195 88.3115 37.498 88.4873 36.9824C88.6631 36.4668 88.8213 35.9102 88.9619 35.3125C89.0557 35.2539 89.126 35.2129 89.1729 35.1895C89.2432 35.166 89.3018 35.1484 89.3486 35.1367C89.5596 35.2422 89.8057 35.3477 90.0869 35.4531C90.3682 35.5469 90.6025 35.5938 90.79 35.5938C90.8838 35.6523 90.9424 35.6992 90.9658 35.7344C90.9893 35.7578 91.0127 35.7812 91.0361 35.8047C91.165 35.957 91.2764 36.1152 91.3701 36.2793C91.4639 36.4316 91.4932 36.6367 91.458 36.8945C91.3877 37 91.335 37.0527 91.2998 37.0527C91.2412 37.2871 91.1768 37.4863 91.1064 37.6504C91.0479 37.8145 90.9834 37.9785 90.9131 38.1426C90.8311 38.3184 90.7549 38.4941 90.6846 38.6699C90.6143 38.8457 90.5557 39.0625 90.5088 39.3203C90.4619 39.3789 90.4268 39.4316 90.4033 39.4785C90.3916 39.5254 90.374 39.5781 90.3506 39.6367C90.3271 39.6953 90.2979 39.7598 90.2627 39.8301C90.2393 39.8887 90.1982 39.9414 90.1396 39.9883C90.1045 40.293 90.0459 40.5391 89.9639 40.7266C89.8936 40.9141 89.8174 41.1016 89.7354 41.2891C89.5947 41.6289 89.4658 41.9688 89.3486 42.3086C89.2432 42.6484 89.1787 43.0352 89.1553 43.4688C89.2139 43.4453 89.2666 43.4336 89.3135 43.4336C89.3721 43.4336 89.4248 43.4336 89.4717 43.4336C89.5771 43.4336 89.7002 43.4512 89.8408 43.4863C90.1924 43.2988 90.5732 43.1875 90.9834 43.1523C91.4053 43.1172 91.8213 43.0938 92.2314 43.082C92.3955 43.082 92.5596 43.082 92.7236 43.082C92.8877 43.082 93.04 43.0703 93.1807 43.0469C93.2861 43.1055 93.3506 43.1406 93.374 43.1523C93.4092 43.1523 93.4561 43.1523 93.5146 43.1523C93.5967 43.1523 93.667 43.1582 93.7256 43.1699C93.8662 43.2988 94.001 43.3926 94.1299 43.4512C94.2588 43.5098 94.3936 43.5625 94.5342 43.6094C94.6631 43.6562 94.7861 43.709 94.9033 43.7676C95.0322 43.8145 95.1553 43.8848 95.2725 43.9785L95.3955 44.7344C95.4775 44.8398 95.5127 44.9102 95.501 44.9453C95.501 45.0391 95.4775 45.1094 95.4307 45.1562L95.4658 45.3496C95.29 45.3848 95.167 45.4258 95.0967 45.4727C95.0381 45.5195 94.9795 45.5723 94.9209 45.6309C94.8271 45.6426 94.7568 45.6484 94.71 45.6484C94.6748 45.6484 94.6396 45.6484 94.6045 45.6484C94.4404 45.6484 94.2412 45.6777 94.0068 45.7363C93.6904 45.6309 93.3623 45.5781 93.0225 45.5781C92.8936 45.5781 92.7588 45.584 92.6182 45.5957C92.4775 45.6074 92.3369 45.6191 92.1963 45.6309C92.0557 45.6543 91.9092 45.6719 91.7568 45.6836C91.6162 45.6953 91.4697 45.7012 91.3174 45.7012L90.9131 45.8066ZM105.169 44.5234C105.099 44.7227 104.993 44.9277 104.853 45.1387C104.724 45.3379 104.565 45.5195 104.378 45.6836C104.202 45.8359 104.003 45.9648 103.78 46.0703C103.558 46.1758 103.323 46.2344 103.077 46.2461C102.925 46.2109 102.819 46.1699 102.761 46.123C102.714 46.0879 102.661 46.0527 102.603 46.0176C102.567 45.9941 102.532 45.9766 102.497 45.9648C102.474 45.9414 102.45 45.9238 102.427 45.9121L102.216 45.8242L102.286 45.5957C102.31 45.502 102.304 45.4316 102.269 45.3848C102.233 45.3262 102.163 45.25 102.058 45.1562C102.022 45.1211 101.987 45.0859 101.952 45.0508C101.917 45.0156 101.888 44.9805 101.864 44.9453L101.565 44.6113L102.04 44.4883C102.333 44.4062 102.526 44.3008 102.62 44.1719C102.726 44.043 102.767 43.8262 102.743 43.5215C102.509 43.4746 102.31 43.4688 102.146 43.5039C101.993 43.5391 101.835 43.5801 101.671 43.627C101.46 43.6855 101.243 43.7383 101.021 43.7852C100.81 43.8203 100.575 43.8379 100.317 43.8379C100.224 43.8379 100.136 43.8379 100.054 43.8379C99.9717 43.8262 99.8838 43.8145 99.79 43.8027L99.6143 43.7676C99.5908 43.6387 99.5674 43.5684 99.5439 43.5566C99.5205 43.5332 99.4971 43.5098 99.4736 43.4863C99.415 43.4277 99.3506 43.3516 99.2803 43.2578C99.2217 43.1523 99.21 43.0234 99.2451 42.8711C99.1865 42.7656 99.1514 42.6602 99.1396 42.5547C99.0693 42.6953 99.0166 42.8418 98.9814 42.9941L98.9111 43.1699L98.7354 43.2051C98.7119 43.2168 98.6943 43.2461 98.6826 43.293C98.6709 43.3281 98.665 43.3574 98.665 43.3809L98.5771 43.6797C98.5537 43.7031 98.5303 43.7266 98.5068 43.75C98.4834 43.7617 98.46 43.7793 98.4365 43.8027C98.4131 43.9082 98.3838 44.0137 98.3486 44.1191C98.3135 44.2246 98.2783 44.3242 98.2432 44.418C98.1846 44.5703 98.1318 44.7227 98.085 44.875C98.0498 45.0156 98.0381 45.1562 98.0498 45.2969L97.9795 45.4902C97.9209 45.5605 97.8564 45.6191 97.7861 45.666C97.7158 45.7012 97.6455 45.7363 97.5752 45.7715C97.5518 45.7949 97.5166 45.8184 97.4697 45.8418C97.4346 45.8535 97.4053 45.8652 97.3818 45.877L97.3291 46.0703L97.1182 46.1055C96.9893 46.1289 96.8955 46.1465 96.8369 46.1582C96.79 46.1699 96.7314 46.1758 96.6611 46.1758L96.4854 46.1582C96.3564 46.0527 96.2568 45.9707 96.1865 45.9121C96.1162 45.8418 96.0342 45.7773 95.9404 45.7188C95.835 45.5781 95.7764 45.4727 95.7646 45.4023C95.7529 45.332 95.7412 45.2676 95.7295 45.209C95.7061 45.1387 95.6943 45.0801 95.6943 45.0332C95.6826 44.9863 95.665 44.9512 95.6416 44.9277L95.4131 44.7168L95.6064 44.5586L95.624 44.2598C95.8584 43.6621 96.1045 43.0879 96.3623 42.5371C96.6318 41.9863 96.9072 41.4238 97.1885 40.8496C97.2822 40.6621 97.3701 40.4746 97.4521 40.2871C97.5459 40.0996 97.6396 39.9121 97.7334 39.7246C97.7217 39.6895 97.7158 39.6484 97.7158 39.6016C97.7158 39.5547 97.7275 39.502 97.751 39.4434C97.8799 39.2441 97.9854 39.0684 98.0674 38.916C98.1494 38.752 98.2314 38.5879 98.3135 38.4238C98.4072 38.2246 98.501 38.0312 98.5947 37.8438C98.7002 37.6562 98.8291 37.4629 98.9814 37.2637L99.2627 37.1406C99.2979 37.1289 99.3389 37.1172 99.3857 37.1055C99.4326 37.082 99.4854 37.0703 99.5439 37.0703L99.8076 37.1055C100.136 36.9531 100.423 36.7422 100.669 36.4727C100.915 36.1914 101.167 35.8574 101.425 35.4707L101.601 35.2246L101.829 35.3652C101.888 35.4004 101.97 35.4355 102.075 35.4707C102.181 35.4941 102.292 35.5234 102.409 35.5586C102.62 35.6055 102.819 35.6582 103.007 35.7168C103.194 35.7754 103.347 35.8633 103.464 35.9805C103.534 36.168 103.575 36.3086 103.587 36.4023C103.599 36.4961 103.616 36.5898 103.64 36.6836C103.675 36.8828 103.704 37.082 103.728 37.2812C103.763 37.4805 103.786 37.7031 103.798 37.9492C103.856 38.1484 103.903 38.3477 103.938 38.5469C103.985 38.7344 104.026 38.9277 104.062 39.127C104.12 39.4082 104.179 39.6836 104.237 39.9531C104.296 40.2109 104.372 40.457 104.466 40.6914C104.56 40.6914 104.618 40.6973 104.642 40.709C104.7 40.6855 104.759 40.668 104.817 40.6562C104.888 40.6445 104.964 40.6328 105.046 40.6211L105.239 40.6035L105.31 40.7793C105.321 40.8379 105.38 40.8965 105.485 40.9551C105.638 40.9668 105.749 41.002 105.819 41.0605C105.89 41.1074 105.954 41.1602 106.013 41.2188C106.06 41.2656 106.106 41.3008 106.153 41.3242L106.417 41.4297L106.276 41.6934C106.159 41.9043 105.989 42.1094 105.767 42.3086C105.556 42.4961 105.315 42.6543 105.046 42.7832C105.058 42.8535 105.063 42.9238 105.063 42.9941C105.075 43.0527 105.093 43.1172 105.116 43.1875C105.151 43.3867 105.181 43.5918 105.204 43.8027C105.228 44.0137 105.228 44.2305 105.204 44.4531L105.169 44.5234ZM100.089 41.4824C100.44 41.459 100.757 41.4355 101.038 41.4121C101.331 41.377 101.653 41.3242 102.005 41.2539C101.923 40.9023 101.835 40.5391 101.741 40.1641C101.647 39.7773 101.548 39.3965 101.442 39.0215L101.337 39.1973C101.103 39.4434 100.874 39.7188 100.651 40.0234C100.44 40.3281 100.259 40.6152 100.106 40.8848C100.036 40.9902 99.9658 41.0957 99.8955 41.2012C99.8252 41.3066 99.7607 41.4121 99.7021 41.5176C99.7725 41.5059 99.8369 41.5 99.8955 41.5C99.9658 41.5 100.03 41.4941 100.089 41.4824ZM109.933 42.8008C109.827 42.8242 109.751 42.8887 109.704 42.9941C109.657 43.0879 109.61 43.1875 109.563 43.293C109.528 43.3984 109.487 43.498 109.44 43.5918C109.405 43.6738 109.347 43.7148 109.265 43.7148C109.253 43.8086 109.218 43.8906 109.159 43.9609C109.112 44.0312 109.065 44.1074 109.019 44.1895C108.972 44.2598 108.937 44.3418 108.913 44.4355C108.89 44.5176 108.901 44.6172 108.948 44.7344C108.854 44.8047 108.796 44.9043 108.772 45.0332C108.749 45.1621 108.72 45.2852 108.685 45.4023C108.661 45.5195 108.614 45.6191 108.544 45.7012C108.474 45.7832 108.345 45.8184 108.157 45.8066C108.122 45.8535 108.116 45.8828 108.14 45.8945C108.163 45.9062 108.181 45.9473 108.192 46.0176C108.063 45.9941 107.964 46 107.894 46.0352C107.835 46.082 107.759 46.1113 107.665 46.123C107.442 46.0527 107.255 45.9297 107.103 45.7539C106.962 45.5781 106.833 45.3848 106.716 45.1738C106.61 44.9512 106.511 44.7285 106.417 44.5059C106.335 44.2832 106.253 44.0898 106.171 43.9258C106.206 43.7969 106.212 43.6738 106.188 43.5566C106.165 43.4277 106.124 43.3223 106.065 43.2402C106.64 42.0215 107.267 40.7207 107.946 39.3379C108.626 37.9551 109.271 36.5898 109.88 35.2422C110.149 35.3477 110.413 35.4707 110.671 35.6113C110.94 35.7402 111.181 35.8926 111.392 36.0684C111.614 36.2441 111.802 36.4492 111.954 36.6836C112.106 36.9062 112.206 37.1582 112.253 37.4395C112.229 37.5098 112.2 37.5391 112.165 37.5273C112.142 37.5039 112.118 37.5098 112.095 37.5449C112.142 37.6035 112.165 37.6445 112.165 37.668C112.177 37.6914 112.177 37.7148 112.165 37.7383C112.165 37.7617 112.165 37.7969 112.165 37.8438C112.165 37.8789 112.183 37.9316 112.218 38.002C112.171 37.9902 112.136 37.9961 112.112 38.0195C112.101 38.043 112.065 38.043 112.007 38.0195C112.054 38.1484 112.065 38.2539 112.042 38.3359C112.03 38.418 112.007 38.4941 111.972 38.5645C111.937 38.623 111.907 38.6934 111.884 38.7754C111.86 38.8457 111.866 38.9395 111.901 39.0566C111.866 39.0566 111.837 39.0684 111.813 39.0918C111.802 39.1035 111.79 39.1211 111.778 39.1445C111.767 39.1562 111.749 39.1738 111.726 39.1973C111.714 39.209 111.69 39.209 111.655 39.1973C111.69 39.4551 111.702 39.7129 111.69 39.9707C111.679 40.2285 111.667 40.4922 111.655 40.7617C111.655 41.0195 111.661 41.2949 111.673 41.5879C111.685 41.8691 111.726 42.1621 111.796 42.4668C112.218 42.2207 112.552 41.9043 112.798 41.5176C113.056 41.1309 113.261 40.6973 113.413 40.2168C113.577 39.7363 113.7 39.2207 113.782 38.6699C113.864 38.1191 113.952 37.5566 114.046 36.9824C114.151 36.877 114.233 36.748 114.292 36.5957C114.351 36.4434 114.403 36.2852 114.45 36.1211C114.497 35.9453 114.544 35.7754 114.591 35.6113C114.638 35.4355 114.696 35.2773 114.767 35.1367C114.942 35.1602 115.089 35.2188 115.206 35.3125C115.335 35.3945 115.452 35.4883 115.558 35.5938C115.663 35.6875 115.774 35.7812 115.892 35.875C116.009 35.957 116.155 36.0098 116.331 36.0332C116.472 36.2324 116.601 36.4258 116.718 36.6133C116.835 36.8008 116.911 37 116.946 37.2109C116.888 37.3047 116.841 37.4102 116.806 37.5273C116.782 37.6445 116.753 37.7617 116.718 37.8789C116.683 37.9961 116.636 38.1074 116.577 38.2129C116.519 38.3066 116.437 38.3887 116.331 38.459C116.296 38.7637 116.249 39.0449 116.19 39.3027C116.144 39.5488 116.091 39.7949 116.032 40.041C115.985 40.2871 115.944 40.5449 115.909 40.8145C115.874 41.0723 115.862 41.3594 115.874 41.6758C115.78 41.9453 115.681 42.2324 115.575 42.5371C115.47 42.8418 115.388 43.1172 115.329 43.3633C115.142 43.5156 114.995 43.6973 114.89 43.9082C114.784 44.1191 114.673 44.3301 114.556 44.541C114.509 44.5879 114.479 44.5996 114.468 44.5762C114.456 44.5527 114.415 44.5352 114.345 44.5234C114.356 44.5703 114.356 44.6055 114.345 44.6289C114.333 44.6523 114.315 44.6758 114.292 44.6992C114.28 44.7109 114.269 44.7344 114.257 44.7695C114.257 44.8047 114.269 44.8516 114.292 44.9102C114.128 44.9805 113.981 45.0801 113.853 45.209C113.724 45.3379 113.583 45.4551 113.431 45.5605C113.29 45.666 113.114 45.7363 112.903 45.7715C112.704 45.8066 112.44 45.7656 112.112 45.6484C111.632 45.2969 111.204 44.8926 110.829 44.4355C110.466 43.9785 110.167 43.4336 109.933 42.8008ZM116.771 38.0898C116.853 37.8438 116.981 37.6328 117.157 37.457C117.345 37.2812 117.544 37.1348 117.755 37.0176C117.978 36.8887 118.206 36.7832 118.44 36.7012C118.675 36.6191 118.897 36.5488 119.108 36.4902C119.577 36.291 120.075 36.1035 120.603 35.9277C121.142 35.7402 121.687 35.5762 122.237 35.4355C122.8 35.2949 123.374 35.207 123.96 35.1719C124.546 35.125 125.161 35.1953 125.806 35.3828C125.841 35.5 125.894 35.6113 125.964 35.7168C126.034 35.8223 126.104 35.9277 126.175 36.0332C126.257 36.1387 126.327 36.2441 126.386 36.3496C126.444 36.4434 126.479 36.543 126.491 36.6484C126.608 36.7539 126.702 36.8711 126.772 37C126.843 37.1172 126.854 37.2754 126.808 37.4746C126.69 37.5684 126.573 37.6562 126.456 37.7383C126.351 37.8086 126.233 37.873 126.104 37.9316C125.671 37.8262 125.231 37.791 124.786 37.8262C124.341 37.8613 123.942 37.8906 123.591 37.9141C123.485 37.8086 123.356 37.7559 123.204 37.7559C123.063 37.7559 122.911 37.7793 122.747 37.8262C122.595 37.873 122.437 37.9199 122.272 37.9668C122.12 38.0137 121.974 38.0254 121.833 38.002C121.716 38.0957 121.569 38.1602 121.394 38.1953C121.229 38.2188 121.048 38.2422 120.849 38.2656C120.837 38.3242 120.849 38.3652 120.884 38.3887C120.919 38.4004 120.925 38.4355 120.901 38.4941C120.972 38.5762 121.06 38.6348 121.165 38.6699C121.282 38.7051 121.399 38.7402 121.517 38.7754C121.646 38.8105 121.757 38.8574 121.851 38.916C121.944 38.9629 122.009 39.0449 122.044 39.1621C122.22 39.1621 122.372 39.2031 122.501 39.2852C122.63 39.3672 122.735 39.4668 122.817 39.584C122.899 39.7012 122.958 39.8301 122.993 39.9707C123.04 40.0996 123.063 40.2168 123.063 40.3223C123.099 40.416 123.14 40.457 123.187 40.4453C123.233 40.4336 123.286 40.457 123.345 40.5156C123.38 40.668 123.468 40.8262 123.608 40.9902C123.749 41.1426 123.86 41.3125 123.942 41.5C123.966 41.793 123.983 42.0566 123.995 42.291C124.007 42.5137 123.966 42.7422 123.872 42.9766C123.696 43.4102 123.45 43.7969 123.134 44.1367C122.829 44.4766 122.478 44.7812 122.079 45.0508C121.692 45.3086 121.276 45.5312 120.831 45.7188C120.386 45.9062 119.952 46.0645 119.53 46.1934C119.483 46.1816 119.437 46.1816 119.39 46.1934C119.343 46.2051 119.331 46.1758 119.354 46.1055C119.261 46.1875 119.155 46.2402 119.038 46.2637C118.933 46.2871 118.815 46.293 118.687 46.2812C118.558 46.2812 118.423 46.2754 118.282 46.2637C118.153 46.252 118.03 46.2578 117.913 46.2812C117.831 46.1992 117.755 46.1172 117.685 46.0352C117.626 45.9648 117.579 45.8711 117.544 45.7539C117.485 45.7539 117.456 45.7246 117.456 45.666C117.468 45.6074 117.45 45.5781 117.403 45.5781C117.474 45.4609 117.503 45.3965 117.491 45.3848C117.491 45.3613 117.474 45.3438 117.438 45.332C117.415 45.3203 117.392 45.3086 117.368 45.2969C117.345 45.2734 117.339 45.2441 117.351 45.209C117.397 45.1152 117.415 45.0098 117.403 44.8926C117.392 44.7637 117.38 44.6348 117.368 44.5059C117.356 44.377 117.362 44.2539 117.386 44.1367C117.421 44.0195 117.509 43.9258 117.649 43.8555C118.048 43.9023 118.423 43.8906 118.774 43.8203C119.138 43.7383 119.478 43.627 119.794 43.4863C120.11 43.3457 120.409 43.1934 120.69 43.0293C120.983 42.8652 121.271 42.7188 121.552 42.5898C121.587 42.4844 121.634 42.3965 121.692 42.3262C121.763 42.2559 121.833 42.1914 121.903 42.1328C121.974 42.0742 122.038 42.0098 122.097 41.9395C122.155 41.8691 122.196 41.7812 122.22 41.6758C122.231 41.5938 122.208 41.5469 122.149 41.5352C122.103 41.5117 122.079 41.4648 122.079 41.3945L121.886 41.3418C121.663 41.2129 121.411 41.1074 121.13 41.0254C120.849 40.9316 120.608 40.832 120.409 40.7266C120.28 40.7969 120.157 40.8145 120.04 40.7793C119.935 40.7441 119.794 40.709 119.618 40.6738C119.22 40.6504 118.833 40.6094 118.458 40.5508C118.095 40.4922 117.743 40.3867 117.403 40.2344C117.38 40.1758 117.351 40.123 117.315 40.0762C117.28 40.0293 117.216 40.0176 117.122 40.041C117.052 39.9473 116.981 39.8594 116.911 39.7773C116.841 39.6836 116.776 39.584 116.718 39.4785C116.741 39.3379 116.759 39.2207 116.771 39.127C116.782 39.0215 116.747 38.9219 116.665 38.8281C116.712 38.6758 116.747 38.5527 116.771 38.459C116.794 38.3652 116.794 38.2422 116.771 38.0898Z" fill="#D2D2D2"/>
<path d="M97.498 59.9555C97.4734 59.6804 97.2305 59.4774 96.9555 59.502C96.6804 59.5266 96.4774 59.7695 96.502 60.0445L97.498 59.9555ZM159.464 101.297C159.59 101.052 159.493 100.75 159.247 100.624L155.244 98.5696C154.998 98.4435 154.697 98.5404 154.571 98.7861C154.444 99.0318 154.541 99.3331 154.787 99.4592L158.346 101.286L156.519 104.844C156.393 105.09 156.49 105.391 156.736 105.517C156.981 105.644 157.283 105.547 157.409 105.301L159.464 101.297ZM96.502 60.0445C98.5063 82.4605 110.391 94.0884 123.687 99.4702C136.937 104.833 151.569 103.991 159.172 101.545L158.866 100.593C151.469 102.972 137.079 103.812 124.062 98.5433C111.092 93.293 99.4668 81.974 97.498 59.9555L96.502 60.0445Z" fill="#D2D2D2"/>
</svg>
