<svg width="705" height="872" viewBox="0 0 705 872" fill="none" xmlns="http://www.w3.org/2000/svg">
<g clip-path="url(#clip0)">
<path d="M610.82 205.53C670 287.85 702 369.92 704.47 447.71C707.24 525.51 680.55 599.27 645.31 675.3C610.06 751.08 566 829.12 506.84 839.44C447.68 849.51 373.41 792.11 292.35 759.64C211 727.41 122.92 720.36 68 671.78C13.15 622.94 -8.24998 532.56 2.83002 444.44C14.16 356.33 58.47 270.44 126.44 189.92C194.67 109.11 287.06 33.58 376.18 37.1C465.55 40.63 551.9 123.2 610.82 205.53Z" fill="#F2F2F2"/>
<path d="M459.63 549.89C477.76 600.56 485.2 832.43 485.2 871.77H391.38L352.33 783.77L420.11 537.38L459.63 549.89Z" fill="#5E60CE"/>
<path d="M426.42 556.34C421.3 590.22 375.73 844.89 365.56 871.77H230C224.24 852.57 202.48 626.69 230 543.51C257.52 460.33 426.42 556.34 426.42 556.34Z" fill="#5E60CE"/>
<path d="M449.93 421.7C458.56 420 576 366.43 602.6 343.63C629.2 320.83 597.42 303.22 587.4 309.09C577.38 314.96 473.07 359.87 451.65 366.43C430.23 372.99 449.93 421.7 449.93 421.7Z" fill="#72EFDD"/>
<path d="M629.76 178.756L544.349 185.418L557.22 350.437L642.631 343.775L629.76 178.756Z" fill="#5E60CE"/>
<path d="M507.71 216.72L552.38 307.55" stroke="black" stroke-width="8" stroke-linecap="round" stroke-linejoin="round"/>
<path d="M331.763 179.156C356.084 176.496 372.672 145.732 368.814 110.442C364.955 75.151 342.11 48.6982 317.789 51.3575C293.468 54.0168 276.88 84.7812 280.739 120.072C284.597 155.362 307.442 181.815 331.763 179.156Z" fill="#72EFDD"/>
<path d="M316 189.34C464 189.34 470.9 549.84 464.4 556.34C457.9 562.84 307.4 593.34 225.4 559.34C205.39 472.34 219 189.34 316 189.34Z" fill="#6930C3"/>
<path d="M550.19 264.16C550.19 255.72 541.19 238.16 527.98 241.28C518.89 243.42 506.39 261.65 500.98 269.39C482.67 282 366.81 377.83 357.9 387.11C357.53 379.37 350.1 363.88 341.18 349.55L265.73 398.34C273.54 420.03 322.22 477.34 341.18 477.34C390.95 477.34 491.58 342.11 517.08 305.84C529 297.55 550.2 281 550.19 264.16Z" fill="#72EFDD"/>
<path d="M248.76 84C248.76 65.23 263.99 54.25 268.94 49.12C278.94 38.72 284.94 10.99 306.07 10.99C312.07 10.99 321.39 14.48 327.25 14.48C334.58 14.45 349.17 0 363.88 0C388.52 0 394 22.68 394 29.65C394 55.17 362.22 74.43 358 76.73C356.21 73.8 348 62.84 345.27 61.18C342 68 319.93 79.35 303.25 89.52C293.91 95.22 288.03 139.46 288.17 142.95C272.59 143 248.76 119.36 248.76 84Z" fill="black"/>
<path d="M285.72 138.7C292.651 138.7 298.27 133.081 298.27 126.15C298.27 119.219 292.651 113.6 285.72 113.6C278.789 113.6 273.17 119.219 273.17 126.15C273.17 133.081 278.789 138.7 285.72 138.7Z" fill="#72EFDD"/>
<path d="M337 213.25C338 219.52 298.69 217.93 298.23 211.25L293.9 148.41L329.5 144.52C329.5 144.52 336.06 207 337 213.25Z" fill="#72EFDD"/>
<path d="M237.68 243.34C193.49 267.41 233 392.42 260.91 405.22C292.44 405.22 356.07 359.57 356.07 344.16C356.07 328.75 295 212.14 237.68 243.34Z" fill="#6930C3"/>
<path d="M606.87 252.58C606.87 273.33 631.54 284.28 635.13 284.28C642.65 284.28 642.65 261.57 642.65 255.69C642.65 242.29 629.58 232.48 619.65 232.48C609.72 232.48 606.87 240.82 606.87 252.58Z" fill="#72EFDD"/>
</g>
<defs>
<clipPath id="clip0">
<rect width="704.67" height="871.77" fill="white"/>
</clipPath>
</defs>
</svg>
