<svg width="773" height="891" viewBox="0 0 773 891" fill="none" xmlns="http://www.w3.org/2000/svg">
<g clip-path="url(#clip0)">
<path d="M630.56 118.29C710.86 152 770.2 244.35 772.88 335.38C775.4 426.57 721.25 516.25 663.75 593.53C606.42 670.64 545.75 735.18 471.14 763.53C396.38 791.86 307.54 783.99 243.84 744.42C180.31 705 142.09 633.76 99.67 563.35C57.26 493.12 11 423.55 1.78 340.57C-7.61 257.76 20.22 161.21 84.09 124.66C147.96 88.11 247.69 111.59 348.27 110.75C448.85 109.91 550.1 84.77 630.56 118.29Z" fill="#F2F2F2"/>
<path d="M206.74 357.24C207.39 370.35 206.74 866.95 206.74 866.95H241.39L294.39 540.6C295.06 530.02 304.72 413.05 304.72 413.05L243.72 350.39L206.74 357.24Z" fill="#5E60CE"/>
<path d="M346.78 353.7C346.78 353.7 386.48 607.7 386.48 618.04C386.48 628.38 321.48 862.7 321.48 862.7H288.13L316.5 592.54L219.23 364" fill="#5E60CE"/>
<path d="M181.57 257.61C179.76 260.24 168.37 286.81 169.23 297.27C170.55 313.27 181.53 322.12 200.31 331.83C205.71 331.83 211.47 269.46 211.47 269.46L194.58 257.61H181.57Z" fill="#72EFDD"/>
<path d="M219.23 188.22C193.94 207.76 172.49 246.22 176.66 253.3C178.66 256.61 189.08 262.51 200.98 267.87" fill="#72EFDD"/>
<path d="M322.509 84.0681C329.867 53.9542 316.599 24.8431 292.875 19.0466C269.151 13.2501 243.954 32.9633 236.596 63.0772C229.238 93.1911 242.506 122.302 266.23 128.099C289.954 133.895 315.151 114.182 322.509 84.0681Z" fill="#72EFDD"/>
<path d="M276.76 139.71C333.01 139.71 355.99 341.41 346.76 353.71C334.17 370.49 244.09 384 206.76 357.25C192.4 347 190.22 139.71 276.76 139.71Z" fill="#6930C3"/>
<path d="M206.74 866.95V890.78H288.13V877.32L241.39 866.95" fill="black"/>
<path d="M288.13 862.7V890.78H373.37V879.86L321.52 862.7" fill="black"/>
<path d="M356.54 244.71C358.12 246.39 371.79 266.34 373.7 270.6C377.51 267.35 499.86 164.77 501.87 163.38C503.88 161.99 507.36 162.11 508.72 163.03C509.823 163.751 510.622 164.853 510.967 166.124C511.311 167.396 511.177 168.75 510.59 169.93C509.51 171.93 494.3 185.31 494.3 185.31C495.54 186.86 501.89 202.96 493.76 210.52C488.23 215.67 481.96 217.38 475.93 214.19C471.93 218.52 376.31 324.19 359.63 324.19C351.91 324.19 325.43 297.02 313.49 276.55" fill="#72EFDD"/>
<path d="M272 199.69C272 232.69 298 278.69 307 278.69C316 278.69 361 245.69 361 237.69C361 229.69 326 170.69 296 170.69C284 170.69 272 183.69 272 199.69Z" fill="#6930C3"/>
<path d="M269 67.7C286.24 67.83 317.54 34.01 317.54 32.7C317.54 29.7 312.22 13.85 281.35 13.85C259.3 13.85 224.61 29.29 224.61 80C224.61 106.11 214.4 134 214.4 146.6C214.4 165.75 229.83 177.82 254.2 177.82C265.97 177.82 283.67 172.02 283.67 162.5C283.67 148.58 297.95 103.35 270.67 93.5" fill="black"/>
<path d="M273.78 92.12C272.145 93.182 270.239 93.7513 268.29 93.76C262.06 93.76 257.01 87.92 257.01 80.71C257.01 73.5 262.06 67.71 268.29 67.71C269.456 67.709 270.614 67.9121 271.71 68.31" fill="#72EFDD"/>
<path d="M730.33 0H532.32V146.38H730.33V0Z" fill="#5E60CE"/>
<path d="M631.32 356.82C677.878 356.82 715.62 319.078 715.62 272.52C715.62 225.962 677.878 188.22 631.32 188.22C584.762 188.22 547.02 225.962 547.02 272.52C547.02 319.078 584.762 356.82 631.32 356.82Z" fill="#6930C3"/>
</g>
<defs>
<clipPath id="clip0">
<rect width="772.96" height="890.78" fill="white"/>
</clipPath>
</defs>
</svg>
