<svg width="623" height="748" viewBox="0 0 623 748" fill="none" xmlns="http://www.w3.org/2000/svg">
<g clip-path="url(#clip0)">
<path d="M543.78 173.61C604 239.28 636.62 327.13 616.2 394.7C595.78 462.27 522.33 509.29 462.1 570.55C401.87 631.81 354.86 707 279.64 735.09C204.57 763.15 101.29 743.9 54.14 682.64C6.83 621.53 15.5 518.25 31.37 431C47.24 343.75 70.59 272.49 117.75 206.82C165.05 141.29 236.3 81.35 316.07 73C395.84 64.65 483.55 107.94 543.78 173.61Z" fill="#F2F2F2"/>
<path d="M79.5 694.72L0 593.72V153.72L79.5 254.72V694.72Z" fill="#D9D9FF"/>
<path d="M526.5 614.22L79.5 695.22V255.22L526.5 174.22V614.22Z" fill="#D9D9FF"/>
<path d="M618.65 655.76L526.5 614.22V174.22L618.65 215.76V655.76Z" fill="#D9D9FF"/>
<path d="M393.13 454.45L466.74 528.07" stroke="#6930C3" stroke-width="11" stroke-linecap="round" stroke-linejoin="round"/>
<path d="M393.13 528.07L466.74 454.45" stroke="#6930C3" stroke-width="11" stroke-linecap="round" stroke-linejoin="round"/>
<path d="M291.69 0C243.6 0 194.99 46.78 291.69 172C388.38 46.78 339.77 0 291.69 0ZM291.69 88.07C285.202 88.072 278.86 86.15 273.465 82.5471C268.069 78.9442 263.864 73.8222 261.38 67.8289C258.896 61.8357 258.245 55.2404 259.509 48.8772C260.774 42.5139 263.897 36.6686 268.483 32.0804C273.07 27.4923 278.915 24.3674 285.277 23.101C291.64 21.8346 298.236 22.4835 304.23 24.9658C310.224 27.4481 315.347 31.6521 318.952 37.0463C322.556 42.4404 324.48 48.7823 324.48 55.27C324.481 59.5769 323.634 63.8418 321.987 67.8213C320.34 71.8007 317.925 75.4166 314.88 78.4625C311.835 81.5084 308.219 83.9246 304.241 85.5731C300.262 87.2215 295.997 88.07 291.69 88.07V88.07Z" fill="#5E60CE"/>
<path d="M132 245.71C130.6 247.97 129.27 250.28 128 252.63" stroke="#6930C3" stroke-width="5" stroke-linecap="round" stroke-linejoin="round"/>
<path d="M121 267.13C109.46 294.59 104.92 325.47 104.92 353.3C104.92 495.87 139.06 595.77 233.44 595.77C316.61 595.77 334.13 513.9 369.21 494.47" stroke="#6930C3" stroke-width="5" stroke-linecap="round" stroke-linejoin="round" stroke-dasharray="16.09 16.09"/>
<path d="M376.65 491.41C379.229 490.712 381.889 490.359 384.56 490.36" stroke="#6930C3" stroke-width="5" stroke-linecap="round" stroke-linejoin="round"/>
<line x1="80" y1="251" x2="80" y2="695" stroke="#6930C3" stroke-width="4"/>
<line x1="528" y1="174" x2="528" y2="616" stroke="#6930C3" stroke-width="4"/>
</g>
<defs>
<clipPath id="clip0">
<rect width="622.3" height="747.71" fill="white"/>
</clipPath>
</defs>
</svg>
