<svg width="490" height="348" viewBox="0 0 490 348" fill="none" xmlns="http://www.w3.org/2000/svg">
<path d="M66.6775 310H50.2615L22.8055 268.432V310H6.3895V242.608H22.8055L50.2615 284.368V242.608H66.6775V310ZM102.961 310.768C97.713 310.768 92.977 309.648 88.753 307.408C84.593 305.168 81.297 301.968 78.865 297.808C76.497 293.648 75.313 288.784 75.313 283.216C75.313 277.712 76.529 272.88 78.961 268.72C81.393 264.496 84.721 261.264 88.945 259.024C93.169 256.784 97.905 255.664 103.153 255.664C108.401 255.664 113.137 256.784 117.361 259.024C121.585 261.264 124.913 264.496 127.345 268.72C129.777 272.88 130.993 277.712 130.993 283.216C130.993 288.72 129.745 293.584 127.249 297.808C124.817 301.968 121.457 305.168 117.169 307.408C112.945 309.648 108.209 310.768 102.961 310.768ZM102.961 296.56C106.097 296.56 108.753 295.408 110.929 293.104C113.169 290.8 114.289 287.504 114.289 283.216C114.289 278.928 113.201 275.632 111.025 273.328C108.913 271.024 106.289 269.872 103.153 269.872C99.953 269.872 97.297 271.024 95.185 273.328C93.073 275.568 92.017 278.864 92.017 283.216C92.017 287.504 93.041 290.8 95.089 293.104C97.201 295.408 99.825 296.56 102.961 296.56ZM136.438 283.12C136.438 277.616 137.462 272.784 139.51 268.624C141.622 264.464 144.47 261.264 148.054 259.024C151.638 256.784 155.638 255.664 160.054 255.664C163.574 255.664 166.774 256.4 169.654 257.872C172.598 259.344 174.902 261.328 176.566 263.824V238.96H192.982V310H176.566V302.32C175.03 304.88 172.822 306.928 169.942 308.464C167.126 310 163.83 310.768 160.054 310.768C155.638 310.768 151.638 309.648 148.054 307.408C144.47 305.104 141.622 301.872 139.51 297.712C137.462 293.488 136.438 288.624 136.438 283.12ZM176.566 283.216C176.566 279.12 175.414 275.888 173.11 273.52C170.87 271.152 168.118 269.968 164.854 269.968C161.59 269.968 158.806 271.152 156.502 273.52C154.262 275.824 153.142 279.024 153.142 283.12C153.142 287.216 154.262 290.48 156.502 292.912C158.806 295.28 161.59 296.464 164.854 296.464C168.118 296.464 170.87 295.28 173.11 292.912C175.414 290.544 176.566 287.312 176.566 283.216ZM255.354 282.352C255.354 283.888 255.258 285.488 255.066 287.152H217.914C218.17 290.48 219.226 293.04 221.082 294.832C223.002 296.56 225.338 297.424 228.09 297.424C232.186 297.424 235.034 295.696 236.634 292.24H254.106C253.21 295.76 251.578 298.928 249.21 301.744C246.906 304.56 243.994 306.768 240.474 308.368C236.954 309.968 233.018 310.768 228.666 310.768C223.418 310.768 218.746 309.648 214.65 307.408C210.554 305.168 207.354 301.968 205.05 297.808C202.746 293.648 201.594 288.784 201.594 283.216C201.594 277.648 202.714 272.784 204.954 268.624C207.258 264.464 210.458 261.264 214.554 259.024C218.65 256.784 223.354 255.664 228.666 255.664C233.85 255.664 238.458 256.752 242.49 258.928C246.522 261.104 249.658 264.208 251.898 268.24C254.202 272.272 255.354 276.976 255.354 282.352ZM238.554 278.032C238.554 275.216 237.594 272.976 235.674 271.312C233.754 269.648 231.354 268.816 228.474 268.816C225.722 268.816 223.386 269.616 221.466 271.216C219.61 272.816 218.458 275.088 218.01 278.032H238.554ZM332.367 255.856C339.023 255.856 344.303 257.872 348.207 261.904C352.175 265.936 354.159 271.536 354.159 278.704V310H337.839V280.912C337.839 277.456 336.911 274.8 335.055 272.944C333.263 271.024 330.767 270.064 327.567 270.064C324.367 270.064 321.839 271.024 319.983 272.944C318.191 274.8 317.295 277.456 317.295 280.912V310H300.975V280.912C300.975 277.456 300.047 274.8 298.191 272.944C296.399 271.024 293.903 270.064 290.703 270.064C287.503 270.064 284.975 271.024 283.119 272.944C281.327 274.8 280.431 277.456 280.431 280.912V310H264.015V256.432H280.431V263.152C282.095 260.912 284.271 259.152 286.959 257.872C289.647 256.528 292.687 255.856 296.079 255.856C300.111 255.856 303.695 256.72 306.831 258.448C310.031 260.176 312.527 262.64 314.319 265.84C316.175 262.896 318.703 260.496 321.903 258.64C325.103 256.784 328.591 255.856 332.367 255.856ZM362.376 283.12C362.376 277.616 363.4 272.784 365.448 268.624C367.56 264.464 370.408 261.264 373.992 259.024C377.576 256.784 381.576 255.664 385.992 255.664C389.768 255.664 393.064 256.432 395.88 257.968C398.76 259.504 400.968 261.52 402.504 264.016V256.432H418.92V310H402.504V302.416C400.904 304.912 398.664 306.928 395.784 308.464C392.968 310 389.672 310.768 385.896 310.768C381.544 310.768 377.576 309.648 373.992 307.408C370.408 305.104 367.56 301.872 365.448 297.712C363.4 293.488 362.376 288.624 362.376 283.12ZM402.504 283.216C402.504 279.12 401.352 275.888 399.048 273.52C396.808 271.152 394.056 269.968 390.792 269.968C387.528 269.968 384.744 271.152 382.44 273.52C380.2 275.824 379.08 279.024 379.08 283.12C379.08 287.216 380.2 290.48 382.44 292.912C384.744 295.28 387.528 296.464 390.792 296.464C394.056 296.464 396.808 295.28 399.048 292.912C401.352 290.544 402.504 287.312 402.504 283.216ZM447.212 264.016C448.812 261.52 451.02 259.504 453.836 257.968C456.652 256.432 459.948 255.664 463.724 255.664C468.14 255.664 472.14 256.784 475.724 259.024C479.308 261.264 482.124 264.464 484.172 268.624C486.284 272.784 487.34 277.616 487.34 283.12C487.34 288.624 486.284 293.488 484.172 297.712C482.124 301.872 479.308 305.104 475.724 307.408C472.14 309.648 468.14 310.768 463.724 310.768C460.012 310.768 456.716 310 453.836 308.464C451.02 306.928 448.812 304.944 447.212 302.512V335.536H430.796V256.432H447.212V264.016ZM470.636 283.12C470.636 279.024 469.484 275.824 467.18 273.52C464.94 271.152 462.156 269.968 458.828 269.968C455.564 269.968 452.78 271.152 450.476 273.52C448.236 275.888 447.116 279.12 447.116 283.216C447.116 287.312 448.236 290.544 450.476 292.912C452.78 295.28 455.564 296.464 458.828 296.464C462.092 296.464 464.876 295.28 467.18 292.912C469.484 290.48 470.636 287.216 470.636 283.12Z" fill="#303030"/>
<circle cx="207.797" cy="77.7974" r="55.0111" transform="rotate(45 207.797 77.7974)" fill="#6930C3"/>
<circle cx="243.704" cy="113.704" r="55.0111" transform="rotate(45 243.704 113.704)" fill="#5E60CE"/>
<circle cx="282.603" cy="152.603" r="55.0111" transform="rotate(45 282.603 152.603)" fill="#72EFDD"/>
</svg>
